<?xml version="1.0" encoding="utf-8" standalone="no"?>
<!DOCTYPE svg PUBLIC "-//W3C//DTD SVG 1.1//EN"
  "http://www.w3.org/Graphics/SVG/1.1/DTD/svg11.dtd">
<!-- Created with matplotlib (http://matplotlib.org/) -->
<svg height="540pt" version="1.1" viewBox="0 0 612 540" width="612pt" xmlns="http://www.w3.org/2000/svg" xmlns:xlink="http://www.w3.org/1999/xlink">
 <defs>
  <style type="text/css">
*{stroke-linecap:butt;stroke-linejoin:round;}
  </style>
 </defs>
 <g id="figure_1">
  <g id="patch_1">
   <path d="M 0 540 
L 612 540 
L 612 0 
L 0 0 
z
" style="fill:#ffffff;"/>
  </g>
  <g id="axes_1">
   <g id="patch_2">
    <path d="M 76.5 480.6 
L 550.8 480.6 
L 550.8 64.8 
L 76.5 64.8 
z
" style="fill:#e5e5e5;"/>
   </g>
   <g id="matplotlib.axis_1">
    <g id="xtick_1">
     <g id="line2d_1">
      <defs>
       <path d="M 0 0 
L 0 3.5 
" id="m098ba4e58f" style="stroke:#555555;stroke-width:0.8;"/>
      </defs>
      <g>
       <use style="fill:#555555;stroke:#555555;stroke-width:0.8;" x="76.5" xlink:href="#m098ba4e58f" y="480.6"/>
      </g>
     </g>
     <g id="text_1">
      <!-- 1970 -->
      <defs>
       <path d="M 12.40625 8.296875 
L 28.515625 8.296875 
L 28.515625 63.921875 
L 10.984375 60.40625 
L 10.984375 69.390625 
L 28.421875 72.90625 
L 38.28125 72.90625 
L 38.28125 8.296875 
L 54.390625 8.296875 
L 54.390625 0 
L 12.40625 0 
z
" id="DejaVuSans-31"/>
       <path d="M 10.984375 1.515625 
L 10.984375 10.5 
Q 14.703125 8.734375 18.5 7.8125 
Q 22.3125 6.890625 25.984375 6.890625 
Q 35.75 6.890625 40.890625 13.453125 
Q 46.046875 20.015625 46.78125 33.40625 
Q 43.953125 29.203125 39.59375 26.953125 
Q 35.25 24.703125 29.984375 24.703125 
Q 19.046875 24.703125 12.671875 31.3125 
Q 6.296875 37.9375 6.296875 49.421875 
Q 6.296875 60.640625 12.9375 67.421875 
Q 19.578125 74.21875 30.609375 74.21875 
Q 43.265625 74.21875 49.921875 64.515625 
Q 56.59375 54.828125 56.59375 36.375 
Q 56.59375 19.140625 48.40625 8.859375 
Q 40.234375 -1.421875 26.421875 -1.421875 
Q 22.703125 -1.421875 18.890625 -0.6875 
Q 15.09375 0.046875 10.984375 1.515625 
M 30.609375 32.421875 
Q 37.25 32.421875 41.125 36.953125 
Q 45.015625 41.5 45.015625 49.421875 
Q 45.015625 57.28125 41.125 61.84375 
Q 37.25 66.40625 30.609375 66.40625 
Q 23.96875 66.40625 20.09375 61.84375 
Q 16.21875 57.28125 16.21875 49.421875 
Q 16.21875 41.5 20.09375 36.953125 
Q 23.96875 32.421875 30.609375 32.421875 
" id="DejaVuSans-39"/>
       <path d="M 8.203125 72.90625 
L 55.078125 72.90625 
L 55.078125 68.703125 
L 28.609375 0 
L 18.3125 0 
L 43.21875 64.59375 
L 8.203125 64.59375 
z
" id="DejaVuSans-37"/>
       <path d="M 31.78125 66.40625 
Q 24.171875 66.40625 20.328125 58.90625 
Q 16.5 51.421875 16.5 36.375 
Q 16.5 21.390625 20.328125 13.890625 
Q 24.171875 6.390625 31.78125 6.390625 
Q 39.453125 6.390625 43.28125 13.890625 
Q 47.125 21.390625 47.125 36.375 
Q 47.125 51.421875 43.28125 58.90625 
Q 39.453125 66.40625 31.78125 66.40625 
M 31.78125 74.21875 
Q 44.046875 74.21875 50.515625 64.515625 
Q 56.984375 54.828125 56.984375 36.375 
Q 56.984375 17.96875 50.515625 8.265625 
Q 44.046875 -1.421875 31.78125 -1.421875 
Q 19.53125 -1.421875 13.0625 8.265625 
Q 6.59375 17.96875 6.59375 36.375 
Q 6.59375 54.828125 13.0625 64.515625 
Q 19.53125 74.21875 31.78125 74.21875 
" id="DejaVuSans-30"/>
      </defs>
      <g style="fill:#555555;" transform="translate(61.23 496.718125)scale(0.12 -0.12)">
       <use xlink:href="#DejaVuSans-31"/>
       <use x="63.623047" xlink:href="#DejaVuSans-39"/>
       <use x="127.246094" xlink:href="#DejaVuSans-37"/>
       <use x="190.869141" xlink:href="#DejaVuSans-30"/>
      </g>
     </g>
    </g>
    <g id="xtick_2">
     <g id="line2d_2">
      <g>
       <use style="fill:#555555;stroke:#555555;stroke-width:0.8;" x="177.414894" xlink:href="#m098ba4e58f" y="480.6"/>
      </g>
     </g>
     <g id="text_2">
      <!-- 1980 -->
      <defs>
       <path d="M 31.78125 34.625 
Q 24.75 34.625 20.71875 30.859375 
Q 16.703125 27.09375 16.703125 20.515625 
Q 16.703125 13.921875 20.71875 10.15625 
Q 24.75 6.390625 31.78125 6.390625 
Q 38.8125 6.390625 42.859375 10.171875 
Q 46.921875 13.96875 46.921875 20.515625 
Q 46.921875 27.09375 42.890625 30.859375 
Q 38.875 34.625 31.78125 34.625 
M 21.921875 38.8125 
Q 15.578125 40.375 12.03125 44.71875 
Q 8.5 49.078125 8.5 55.328125 
Q 8.5 64.0625 14.71875 69.140625 
Q 20.953125 74.21875 31.78125 74.21875 
Q 42.671875 74.21875 48.875 69.140625 
Q 55.078125 64.0625 55.078125 55.328125 
Q 55.078125 49.078125 51.53125 44.71875 
Q 48 40.375 41.703125 38.8125 
Q 48.828125 37.15625 52.796875 32.3125 
Q 56.78125 27.484375 56.78125 20.515625 
Q 56.78125 9.90625 50.3125 4.234375 
Q 43.84375 -1.421875 31.78125 -1.421875 
Q 19.734375 -1.421875 13.25 4.234375 
Q 6.78125 9.90625 6.78125 20.515625 
Q 6.78125 27.484375 10.78125 32.3125 
Q 14.796875 37.15625 21.921875 38.8125 
M 18.3125 54.390625 
Q 18.3125 48.734375 21.84375 45.5625 
Q 25.390625 42.390625 31.78125 42.390625 
Q 38.140625 42.390625 41.71875 45.5625 
Q 45.3125 48.734375 45.3125 54.390625 
Q 45.3125 60.0625 41.71875 63.234375 
Q 38.140625 66.40625 31.78125 66.40625 
Q 25.390625 66.40625 21.84375 63.234375 
Q 18.3125 60.0625 18.3125 54.390625 
" id="DejaVuSans-38"/>
      </defs>
      <g style="fill:#555555;" transform="translate(162.144894 496.718125)scale(0.12 -0.12)">
       <use xlink:href="#DejaVuSans-31"/>
       <use x="63.623047" xlink:href="#DejaVuSans-39"/>
       <use x="127.246094" xlink:href="#DejaVuSans-38"/>
       <use x="190.869141" xlink:href="#DejaVuSans-30"/>
      </g>
     </g>
    </g>
    <g id="xtick_3">
     <g id="line2d_3">
      <g>
       <use style="fill:#555555;stroke:#555555;stroke-width:0.8;" x="278.329787" xlink:href="#m098ba4e58f" y="480.6"/>
      </g>
     </g>
     <g id="text_3">
      <!-- 1990 -->
      <g style="fill:#555555;" transform="translate(263.059787 496.718125)scale(0.12 -0.12)">
       <use xlink:href="#DejaVuSans-31"/>
       <use x="63.623047" xlink:href="#DejaVuSans-39"/>
       <use x="127.246094" xlink:href="#DejaVuSans-39"/>
       <use x="190.869141" xlink:href="#DejaVuSans-30"/>
      </g>
     </g>
    </g>
    <g id="xtick_4">
     <g id="line2d_4">
      <g>
       <use style="fill:#555555;stroke:#555555;stroke-width:0.8;" x="379.244681" xlink:href="#m098ba4e58f" y="480.6"/>
      </g>
     </g>
     <g id="text_4">
      <!-- 2000 -->
      <defs>
       <path d="M 19.1875 8.296875 
L 53.609375 8.296875 
L 53.609375 0 
L 7.328125 0 
L 7.328125 8.296875 
Q 12.9375 14.109375 22.625 23.890625 
Q 32.328125 33.6875 34.8125 36.53125 
Q 39.546875 41.84375 41.421875 45.53125 
Q 43.3125 49.21875 43.3125 52.78125 
Q 43.3125 58.59375 39.234375 62.25 
Q 35.15625 65.921875 28.609375 65.921875 
Q 23.96875 65.921875 18.8125 64.3125 
Q 13.671875 62.703125 7.8125 59.421875 
L 7.8125 69.390625 
Q 13.765625 71.78125 18.9375 73 
Q 24.125 74.21875 28.421875 74.21875 
Q 39.75 74.21875 46.484375 68.546875 
Q 53.21875 62.890625 53.21875 53.421875 
Q 53.21875 48.921875 51.53125 44.890625 
Q 49.859375 40.875 45.40625 35.40625 
Q 44.1875 33.984375 37.640625 27.21875 
Q 31.109375 20.453125 19.1875 8.296875 
" id="DejaVuSans-32"/>
      </defs>
      <g style="fill:#555555;" transform="translate(363.974681 496.718125)scale(0.12 -0.12)">
       <use xlink:href="#DejaVuSans-32"/>
       <use x="63.623047" xlink:href="#DejaVuSans-30"/>
       <use x="127.246094" xlink:href="#DejaVuSans-30"/>
       <use x="190.869141" xlink:href="#DejaVuSans-30"/>
      </g>
     </g>
    </g>
    <g id="xtick_5">
     <g id="line2d_5">
      <g>
       <use style="fill:#555555;stroke:#555555;stroke-width:0.8;" x="480.159574" xlink:href="#m098ba4e58f" y="480.6"/>
      </g>
     </g>
     <g id="text_5">
      <!-- 2010 -->
      <g style="fill:#555555;" transform="translate(464.889574 496.718125)scale(0.12 -0.12)">
       <use xlink:href="#DejaVuSans-32"/>
       <use x="63.623047" xlink:href="#DejaVuSans-30"/>
       <use x="127.246094" xlink:href="#DejaVuSans-31"/>
       <use x="190.869141" xlink:href="#DejaVuSans-30"/>
      </g>
     </g>
    </g>
    <g id="xtick_6">
     <g id="line2d_6">
      <g>
       <use style="fill:#555555;stroke:#555555;stroke-width:0.8;" x="530.617021" xlink:href="#m098ba4e58f" y="480.6"/>
      </g>
     </g>
     <g id="text_6">
      <!-- 2015 -->
      <defs>
       <path d="M 10.796875 72.90625 
L 49.515625 72.90625 
L 49.515625 64.59375 
L 19.828125 64.59375 
L 19.828125 46.734375 
Q 21.96875 47.46875 24.109375 47.828125 
Q 26.265625 48.1875 28.421875 48.1875 
Q 40.625 48.1875 47.75 41.5 
Q 54.890625 34.8125 54.890625 23.390625 
Q 54.890625 11.625 47.5625 5.09375 
Q 40.234375 -1.421875 26.90625 -1.421875 
Q 22.3125 -1.421875 17.546875 -0.640625 
Q 12.796875 0.140625 7.71875 1.703125 
L 7.71875 11.625 
Q 12.109375 9.234375 16.796875 8.0625 
Q 21.484375 6.890625 26.703125 6.890625 
Q 35.15625 6.890625 40.078125 11.328125 
Q 45.015625 15.765625 45.015625 23.390625 
Q 45.015625 31 40.078125 35.4375 
Q 35.15625 39.890625 26.703125 39.890625 
Q 22.75 39.890625 18.8125 39.015625 
Q 14.890625 38.140625 10.796875 36.28125 
z
" id="DejaVuSans-35"/>
      </defs>
      <g style="fill:#555555;" transform="translate(515.347021 496.718125)scale(0.12 -0.12)">
       <use xlink:href="#DejaVuSans-32"/>
       <use x="63.623047" xlink:href="#DejaVuSans-30"/>
       <use x="127.246094" xlink:href="#DejaVuSans-31"/>
       <use x="190.869141" xlink:href="#DejaVuSans-35"/>
      </g>
     </g>
    </g>
    <g id="text_7">
     <!-- year -->
     <defs>
      <path d="M 32.171875 -5.078125 
Q 28.375 -14.84375 24.75 -17.8125 
Q 21.140625 -20.796875 15.09375 -20.796875 
L 7.90625 -20.796875 
L 7.90625 -13.28125 
L 13.1875 -13.28125 
Q 16.890625 -13.28125 18.9375 -11.515625 
Q 21 -9.765625 23.484375 -3.21875 
L 25.09375 0.875 
L 2.984375 54.6875 
L 12.5 54.6875 
L 29.59375 11.921875 
L 46.6875 54.6875 
L 56.203125 54.6875 
z
" id="DejaVuSans-79"/>
      <path d="M 56.203125 29.59375 
L 56.203125 25.203125 
L 14.890625 25.203125 
Q 15.484375 15.921875 20.484375 11.0625 
Q 25.484375 6.203125 34.421875 6.203125 
Q 39.59375 6.203125 44.453125 7.46875 
Q 49.3125 8.734375 54.109375 11.28125 
L 54.109375 2.78125 
Q 49.265625 0.734375 44.1875 -0.34375 
Q 39.109375 -1.421875 33.890625 -1.421875 
Q 20.796875 -1.421875 13.15625 6.1875 
Q 5.515625 13.8125 5.515625 26.8125 
Q 5.515625 40.234375 12.765625 48.109375 
Q 20.015625 56 32.328125 56 
Q 43.359375 56 49.78125 48.890625 
Q 56.203125 41.796875 56.203125 29.59375 
M 47.21875 32.234375 
Q 47.125 39.59375 43.09375 43.984375 
Q 39.0625 48.390625 32.421875 48.390625 
Q 24.90625 48.390625 20.390625 44.140625 
Q 15.875 39.890625 15.1875 32.171875 
z
" id="DejaVuSans-65"/>
      <path d="M 34.28125 27.484375 
Q 23.390625 27.484375 19.1875 25 
Q 14.984375 22.515625 14.984375 16.5 
Q 14.984375 11.71875 18.140625 8.90625 
Q 21.296875 6.109375 26.703125 6.109375 
Q 34.1875 6.109375 38.703125 11.40625 
Q 43.21875 16.703125 43.21875 25.484375 
L 43.21875 27.484375 
z
M 52.203125 31.203125 
L 52.203125 0 
L 43.21875 0 
L 43.21875 8.296875 
Q 40.140625 3.328125 35.546875 0.953125 
Q 30.953125 -1.421875 24.3125 -1.421875 
Q 15.921875 -1.421875 10.953125 3.296875 
Q 6 8.015625 6 15.921875 
Q 6 25.140625 12.171875 29.828125 
Q 18.359375 34.515625 30.609375 34.515625 
L 43.21875 34.515625 
L 43.21875 35.40625 
Q 43.21875 41.609375 39.140625 45 
Q 35.0625 48.390625 27.6875 48.390625 
Q 23 48.390625 18.546875 47.265625 
Q 14.109375 46.140625 10.015625 43.890625 
L 10.015625 52.203125 
Q 14.9375 54.109375 19.578125 55.046875 
Q 24.21875 56 28.609375 56 
Q 40.484375 56 46.34375 49.84375 
Q 52.203125 43.703125 52.203125 31.203125 
" id="DejaVuSans-61"/>
      <path d="M 41.109375 46.296875 
Q 39.59375 47.171875 37.8125 47.578125 
Q 36.03125 48 33.890625 48 
Q 26.265625 48 22.1875 43.046875 
Q 18.109375 38.09375 18.109375 28.8125 
L 18.109375 0 
L 9.078125 0 
L 9.078125 54.6875 
L 18.109375 54.6875 
L 18.109375 46.1875 
Q 20.953125 51.171875 25.484375 53.578125 
Q 30.03125 56 36.53125 56 
Q 37.453125 56 38.578125 55.875 
Q 39.703125 55.765625 41.0625 55.515625 
z
" id="DejaVuSans-72"/>
     </defs>
     <g style="fill:#555555;" transform="translate(297.586125 514.1555)scale(0.144 -0.144)">
      <use xlink:href="#DejaVuSans-79"/>
      <use x="59.179688" xlink:href="#DejaVuSans-65"/>
      <use x="120.703125" xlink:href="#DejaVuSans-61"/>
      <use x="181.982422" xlink:href="#DejaVuSans-72"/>
     </g>
    </g>
   </g>
   <g id="matplotlib.axis_2">
    <g id="ytick_1">
     <g id="line2d_7">
      <path clip-path="url(#p2621df9e76)" d="M 76.5 442.977055 
L 550.8 442.977055 
" style="fill:none;stroke:#ffffff;stroke-linecap:square;stroke-width:0.8;"/>
     </g>
     <g id="line2d_8">
      <defs>
       <path d="M 0 0 
L -3.5 0 
" id="mf6445be9c3" style="stroke:#555555;stroke-width:0.8;"/>
      </defs>
      <g>
       <use style="fill:#555555;stroke:#555555;stroke-width:0.8;" x="76.5" xlink:href="#mf6445be9c3" y="442.977055"/>
      </g>
     </g>
     <g id="text_8">
      <!-- 1 MHz -->
      <defs>
       <path id="DejaVuSans-20"/>
       <path d="M 9.8125 72.90625 
L 24.515625 72.90625 
L 43.109375 23.296875 
L 61.8125 72.90625 
L 76.515625 72.90625 
L 76.515625 0 
L 66.890625 0 
L 66.890625 64.015625 
L 48.09375 14.015625 
L 38.1875 14.015625 
L 19.390625 64.015625 
L 19.390625 0 
L 9.8125 0 
z
" id="DejaVuSans-4d"/>
       <path d="M 9.8125 72.90625 
L 19.671875 72.90625 
L 19.671875 43.015625 
L 55.515625 43.015625 
L 55.515625 72.90625 
L 65.375 72.90625 
L 65.375 0 
L 55.515625 0 
L 55.515625 34.71875 
L 19.671875 34.71875 
L 19.671875 0 
L 9.8125 0 
z
" id="DejaVuSans-48"/>
       <path d="M 5.515625 54.6875 
L 48.1875 54.6875 
L 48.1875 46.484375 
L 14.40625 7.171875 
L 48.1875 7.171875 
L 48.1875 0 
L 4.296875 0 
L 4.296875 8.203125 
L 38.09375 47.515625 
L 5.515625 47.515625 
z
" id="DejaVuSans-7a"/>
      </defs>
      <g style="fill:#555555;" transform="translate(32.375 440.81743)scale(0.12 -0.12)">
       <use xlink:href="#DejaVuSans-31"/>
       <use x="63.623047" xlink:href="#DejaVuSans-20"/>
       <use x="95.410156" xlink:href="#DejaVuSans-4d"/>
       <use x="181.689453" xlink:href="#DejaVuSans-48"/>
       <use x="256.884766" xlink:href="#DejaVuSans-7a"/>
      </g>
      <!-- 1 µs -->
      <defs>
       <path d="M 8.5 -20.796875 
L 8.5 54.6875 
L 17.484375 54.6875 
L 17.484375 20.703125 
Q 17.484375 13.625 20.84375 10 
Q 24.21875 6.390625 30.8125 6.390625 
Q 38.03125 6.390625 41.671875 10.484375 
Q 45.3125 14.59375 45.3125 22.796875 
L 45.3125 54.6875 
L 54.296875 54.6875 
L 54.296875 12.59375 
Q 54.296875 9.671875 55.140625 8.28125 
Q 56 6.890625 57.8125 6.890625 
Q 58.25 6.890625 59.03125 7.15625 
Q 59.8125 7.421875 61.1875 8.015625 
L 61.1875 0.78125 
Q 59.1875 -0.34375 57.390625 -0.875 
Q 55.609375 -1.421875 53.90625 -1.421875 
Q 50.53125 -1.421875 48.53125 0.484375 
Q 46.53125 2.390625 45.796875 6.296875 
Q 43.359375 2.4375 39.8125 0.5 
Q 36.28125 -1.421875 31.5 -1.421875 
Q 26.515625 -1.421875 23.015625 0.484375 
Q 19.53125 2.390625 17.484375 6.203125 
L 17.484375 -20.796875 
z
" id="DejaVuSans-b5"/>
       <path d="M 44.28125 53.078125 
L 44.28125 44.578125 
Q 40.484375 46.53125 36.375 47.5 
Q 32.28125 48.484375 27.875 48.484375 
Q 21.1875 48.484375 17.84375 46.4375 
Q 14.5 44.390625 14.5 40.28125 
Q 14.5 37.15625 16.890625 35.375 
Q 19.28125 33.59375 26.515625 31.984375 
L 29.59375 31.296875 
Q 39.15625 29.25 43.1875 25.515625 
Q 47.21875 21.78125 47.21875 15.09375 
Q 47.21875 7.46875 41.1875 3.015625 
Q 35.15625 -1.421875 24.609375 -1.421875 
Q 20.21875 -1.421875 15.453125 -0.5625 
Q 10.6875 0.296875 5.421875 2 
L 5.421875 11.28125 
Q 10.40625 8.6875 15.234375 7.390625 
Q 20.0625 6.109375 24.8125 6.109375 
Q 31.15625 6.109375 34.5625 8.28125 
Q 37.984375 10.453125 37.984375 14.40625 
Q 37.984375 18.0625 35.515625 20.015625 
Q 33.0625 21.96875 24.703125 23.78125 
L 21.578125 24.515625 
Q 13.234375 26.265625 9.515625 29.90625 
Q 5.8125 33.546875 5.8125 39.890625 
Q 5.8125 47.609375 11.28125 51.796875 
Q 16.75 56 26.8125 56 
Q 31.78125 56 36.171875 55.265625 
Q 40.578125 54.546875 44.28125 53.078125 
" id="DejaVuSans-73"/>
      </defs>
      <g style="fill:#555555;" transform="translate(44.165 454.254805)scale(0.12 -0.12)">
       <use xlink:href="#DejaVuSans-31"/>
       <use x="63.623047" xlink:href="#DejaVuSans-20"/>
       <use x="95.410156" xlink:href="#DejaVuSans-b5"/>
       <use x="159.033203" xlink:href="#DejaVuSans-73"/>
      </g>
     </g>
    </g>
    <g id="ytick_2">
     <g id="line2d_9">
      <path clip-path="url(#p2621df9e76)" d="M 76.5 348.432791 
L 550.8 348.432791 
" style="fill:none;stroke:#ffffff;stroke-linecap:square;stroke-width:0.8;"/>
     </g>
     <g id="line2d_10">
      <g>
       <use style="fill:#555555;stroke:#555555;stroke-width:0.8;" x="76.5" xlink:href="#mf6445be9c3" y="348.432791"/>
      </g>
     </g>
     <g id="text_9">
      <!-- 10 MHz -->
      <g style="fill:#555555;" transform="translate(24.74 346.273166)scale(0.12 -0.12)">
       <use xlink:href="#DejaVuSans-31"/>
       <use x="63.623047" xlink:href="#DejaVuSans-30"/>
       <use x="127.246094" xlink:href="#DejaVuSans-20"/>
       <use x="159.033203" xlink:href="#DejaVuSans-4d"/>
       <use x="245.3125" xlink:href="#DejaVuSans-48"/>
       <use x="320.507812" xlink:href="#DejaVuSans-7a"/>
      </g>
      <!-- 100 ns -->
      <defs>
       <path d="M 54.890625 33.015625 
L 54.890625 0 
L 45.90625 0 
L 45.90625 32.71875 
Q 45.90625 40.484375 42.875 44.328125 
Q 39.84375 48.1875 33.796875 48.1875 
Q 26.515625 48.1875 22.3125 43.546875 
Q 18.109375 38.921875 18.109375 30.90625 
L 18.109375 0 
L 9.078125 0 
L 9.078125 54.6875 
L 18.109375 54.6875 
L 18.109375 46.1875 
Q 21.34375 51.125 25.703125 53.5625 
Q 30.078125 56 35.796875 56 
Q 45.21875 56 50.046875 50.171875 
Q 54.890625 44.34375 54.890625 33.015625 
" id="DejaVuSans-6e"/>
      </defs>
      <g style="fill:#555555;" transform="translate(28.925 359.710541)scale(0.12 -0.12)">
       <use xlink:href="#DejaVuSans-31"/>
       <use x="63.623047" xlink:href="#DejaVuSans-30"/>
       <use x="127.246094" xlink:href="#DejaVuSans-30"/>
       <use x="190.869141" xlink:href="#DejaVuSans-20"/>
       <use x="222.65625" xlink:href="#DejaVuSans-6e"/>
       <use x="286.035156" xlink:href="#DejaVuSans-73"/>
      </g>
     </g>
    </g>
    <g id="ytick_3">
     <g id="line2d_11">
      <path clip-path="url(#p2621df9e76)" d="M 76.5 253.888527 
L 550.8 253.888527 
" style="fill:none;stroke:#ffffff;stroke-linecap:square;stroke-width:0.8;"/>
     </g>
     <g id="line2d_12">
      <g>
       <use style="fill:#555555;stroke:#555555;stroke-width:0.8;" x="76.5" xlink:href="#mf6445be9c3" y="253.888527"/>
      </g>
     </g>
     <g id="text_10">
      <!-- 100 MHz -->
      <g style="fill:#555555;" transform="translate(17.105 251.728902)scale(0.12 -0.12)">
       <use xlink:href="#DejaVuSans-31"/>
       <use x="63.623047" xlink:href="#DejaVuSans-30"/>
       <use x="127.246094" xlink:href="#DejaVuSans-30"/>
       <use x="190.869141" xlink:href="#DejaVuSans-20"/>
       <use x="222.65625" xlink:href="#DejaVuSans-4d"/>
       <use x="308.935547" xlink:href="#DejaVuSans-48"/>
       <use x="384.130859" xlink:href="#DejaVuSans-7a"/>
      </g>
      <!-- 10 ns -->
      <g style="fill:#555555;" transform="translate(36.56 265.166277)scale(0.12 -0.12)">
       <use xlink:href="#DejaVuSans-31"/>
       <use x="63.623047" xlink:href="#DejaVuSans-30"/>
       <use x="127.246094" xlink:href="#DejaVuSans-20"/>
       <use x="159.033203" xlink:href="#DejaVuSans-6e"/>
       <use x="222.412109" xlink:href="#DejaVuSans-73"/>
      </g>
     </g>
    </g>
    <g id="ytick_4">
     <g id="line2d_13">
      <path clip-path="url(#p2621df9e76)" d="M 76.5 159.344264 
L 550.8 159.344264 
" style="fill:none;stroke:#ffffff;stroke-linecap:square;stroke-width:0.8;"/>
     </g>
     <g id="line2d_14">
      <g>
       <use style="fill:#555555;stroke:#555555;stroke-width:0.8;" x="76.5" xlink:href="#mf6445be9c3" y="159.344264"/>
      </g>
     </g>
     <g id="text_11">
      <!-- 1 GHz -->
      <defs>
       <path d="M 59.515625 10.40625 
L 59.515625 29.984375 
L 43.40625 29.984375 
L 43.40625 38.09375 
L 69.28125 38.09375 
L 69.28125 6.78125 
Q 63.578125 2.734375 56.6875 0.65625 
Q 49.8125 -1.421875 42 -1.421875 
Q 24.90625 -1.421875 15.25 8.5625 
Q 5.609375 18.5625 5.609375 36.375 
Q 5.609375 54.25 15.25 64.234375 
Q 24.90625 74.21875 42 74.21875 
Q 49.125 74.21875 55.546875 72.453125 
Q 61.96875 70.703125 67.390625 67.28125 
L 67.390625 56.78125 
Q 61.921875 61.421875 55.765625 63.765625 
Q 49.609375 66.109375 42.828125 66.109375 
Q 29.4375 66.109375 22.71875 58.640625 
Q 16.015625 51.171875 16.015625 36.375 
Q 16.015625 21.625 22.71875 14.15625 
Q 29.4375 6.6875 42.828125 6.6875 
Q 48.046875 6.6875 52.140625 7.59375 
Q 56.25 8.5 59.515625 10.40625 
" id="DejaVuSans-47"/>
      </defs>
      <g style="fill:#555555;" transform="translate(33.430625 157.184639)scale(0.12 -0.12)">
       <use xlink:href="#DejaVuSans-31"/>
       <use x="63.623047" xlink:href="#DejaVuSans-20"/>
       <use x="95.410156" xlink:href="#DejaVuSans-47"/>
       <use x="172.900391" xlink:href="#DejaVuSans-48"/>
       <use x="248.095703" xlink:href="#DejaVuSans-7a"/>
      </g>
      <!-- 1 ns -->
      <g style="fill:#555555;" transform="translate(44.195 170.622014)scale(0.12 -0.12)">
       <use xlink:href="#DejaVuSans-31"/>
       <use x="63.623047" xlink:href="#DejaVuSans-20"/>
       <use x="95.410156" xlink:href="#DejaVuSans-6e"/>
       <use x="158.789062" xlink:href="#DejaVuSans-73"/>
      </g>
     </g>
    </g>
    <g id="ytick_5">
     <g id="line2d_15">
      <path clip-path="url(#p2621df9e76)" d="M 76.5 64.8 
L 550.8 64.8 
" style="fill:none;stroke:#ffffff;stroke-linecap:square;stroke-width:0.8;"/>
     </g>
     <g id="line2d_16">
      <g>
       <use style="fill:#555555;stroke:#555555;stroke-width:0.8;" x="76.5" xlink:href="#mf6445be9c3" y="64.8"/>
      </g>
     </g>
     <g id="text_12">
      <!-- 10 GHz -->
      <g style="fill:#555555;" transform="translate(25.795625 62.640375)scale(0.12 -0.12)">
       <use xlink:href="#DejaVuSans-31"/>
       <use x="63.623047" xlink:href="#DejaVuSans-30"/>
       <use x="127.246094" xlink:href="#DejaVuSans-20"/>
       <use x="159.033203" xlink:href="#DejaVuSans-47"/>
       <use x="236.523438" xlink:href="#DejaVuSans-48"/>
       <use x="311.71875" xlink:href="#DejaVuSans-7a"/>
      </g>
      <!-- 0.1 ns -->
      <defs>
       <path d="M 10.6875 12.40625 
L 21 12.40625 
L 21 0 
L 10.6875 0 
z
" id="DejaVuSans-2e"/>
      </defs>
      <g style="fill:#555555;" transform="translate(32.74625 76.07775)scale(0.12 -0.12)">
       <use xlink:href="#DejaVuSans-30"/>
       <use x="63.623047" xlink:href="#DejaVuSans-2e"/>
       <use x="95.410156" xlink:href="#DejaVuSans-31"/>
       <use x="159.033203" xlink:href="#DejaVuSans-20"/>
       <use x="190.820312" xlink:href="#DejaVuSans-6e"/>
       <use x="254.199219" xlink:href="#DejaVuSans-73"/>
      </g>
     </g>
    </g>
    <g id="ytick_6">
     <g id="line2d_17">
      <path clip-path="url(#p2621df9e76)" d="M 76.5 480.6 
L 550.8 480.6 
" style="fill:none;stroke:#ffffff;stroke-linecap:square;stroke-width:0.8;"/>
     </g>
     <g id="line2d_18">
      <defs>
       <path d="M 0 0 
L -2 0 
" id="m7575272ed9" style="stroke:#555555;stroke-width:0.6;"/>
      </defs>
      <g>
       <use style="fill:#555555;stroke:#555555;stroke-width:0.6;" x="76.5" xlink:href="#m7575272ed9" y="480.6"/>
      </g>
     </g>
    </g>
    <g id="ytick_7">
     <g id="line2d_19">
      <path clip-path="url(#p2621df9e76)" d="M 76.5 471.437714 
L 550.8 471.437714 
" style="fill:none;stroke:#ffffff;stroke-linecap:square;stroke-width:0.8;"/>
     </g>
     <g id="line2d_20">
      <g>
       <use style="fill:#555555;stroke:#555555;stroke-width:0.6;" x="76.5" xlink:href="#m7575272ed9" y="471.437714"/>
      </g>
     </g>
    </g>
    <g id="ytick_8">
     <g id="line2d_21">
      <path clip-path="url(#p2621df9e76)" d="M 76.5 463.951582 
L 550.8 463.951582 
" style="fill:none;stroke:#ffffff;stroke-linecap:square;stroke-width:0.8;"/>
     </g>
     <g id="line2d_22">
      <g>
       <use style="fill:#555555;stroke:#555555;stroke-width:0.6;" x="76.5" xlink:href="#m7575272ed9" y="463.951582"/>
      </g>
     </g>
    </g>
    <g id="ytick_9">
     <g id="line2d_23">
      <path clip-path="url(#p2621df9e76)" d="M 76.5 457.622147 
L 550.8 457.622147 
" style="fill:none;stroke:#ffffff;stroke-linecap:square;stroke-width:0.8;"/>
     </g>
     <g id="line2d_24">
      <g>
       <use style="fill:#555555;stroke:#555555;stroke-width:0.6;" x="76.5" xlink:href="#m7575272ed9" y="457.622147"/>
      </g>
     </g>
    </g>
    <g id="ytick_10">
     <g id="line2d_25">
      <path clip-path="url(#p2621df9e76)" d="M 76.5 452.139341 
L 550.8 452.139341 
" style="fill:none;stroke:#ffffff;stroke-linecap:square;stroke-width:0.8;"/>
     </g>
     <g id="line2d_26">
      <g>
       <use style="fill:#555555;stroke:#555555;stroke-width:0.6;" x="76.5" xlink:href="#m7575272ed9" y="452.139341"/>
      </g>
     </g>
    </g>
    <g id="ytick_11">
     <g id="line2d_27">
      <path clip-path="url(#p2621df9e76)" d="M 76.5 447.303163 
L 550.8 447.303163 
" style="fill:none;stroke:#ffffff;stroke-linecap:square;stroke-width:0.8;"/>
     </g>
     <g id="line2d_28">
      <g>
       <use style="fill:#555555;stroke:#555555;stroke-width:0.6;" x="76.5" xlink:href="#m7575272ed9" y="447.303163"/>
      </g>
     </g>
    </g>
    <g id="ytick_12">
     <g id="line2d_29">
      <path clip-path="url(#p2621df9e76)" d="M 76.5 414.516396 
L 550.8 414.516396 
" style="fill:none;stroke:#ffffff;stroke-linecap:square;stroke-width:0.8;"/>
     </g>
     <g id="line2d_30">
      <g>
       <use style="fill:#555555;stroke:#555555;stroke-width:0.6;" x="76.5" xlink:href="#m7575272ed9" y="414.516396"/>
      </g>
     </g>
    </g>
    <g id="ytick_13">
     <g id="line2d_31">
      <path clip-path="url(#p2621df9e76)" d="M 76.5 397.867977 
L 550.8 397.867977 
" style="fill:none;stroke:#ffffff;stroke-linecap:square;stroke-width:0.8;"/>
     </g>
     <g id="line2d_32">
      <g>
       <use style="fill:#555555;stroke:#555555;stroke-width:0.6;" x="76.5" xlink:href="#m7575272ed9" y="397.867977"/>
      </g>
     </g>
    </g>
    <g id="ytick_14">
     <g id="line2d_33">
      <path clip-path="url(#p2621df9e76)" d="M 76.5 386.055736 
L 550.8 386.055736 
" style="fill:none;stroke:#ffffff;stroke-linecap:square;stroke-width:0.8;"/>
     </g>
     <g id="line2d_34">
      <g>
       <use style="fill:#555555;stroke:#555555;stroke-width:0.6;" x="76.5" xlink:href="#m7575272ed9" y="386.055736"/>
      </g>
     </g>
    </g>
    <g id="ytick_15">
     <g id="line2d_35">
      <path clip-path="url(#p2621df9e76)" d="M 76.5 376.89345 
L 550.8 376.89345 
" style="fill:none;stroke:#ffffff;stroke-linecap:square;stroke-width:0.8;"/>
     </g>
     <g id="line2d_36">
      <g>
       <use style="fill:#555555;stroke:#555555;stroke-width:0.6;" x="76.5" xlink:href="#m7575272ed9" y="376.89345"/>
      </g>
     </g>
    </g>
    <g id="ytick_16">
     <g id="line2d_37">
      <path clip-path="url(#p2621df9e76)" d="M 76.5 369.407318 
L 550.8 369.407318 
" style="fill:none;stroke:#ffffff;stroke-linecap:square;stroke-width:0.8;"/>
     </g>
     <g id="line2d_38">
      <g>
       <use style="fill:#555555;stroke:#555555;stroke-width:0.6;" x="76.5" xlink:href="#m7575272ed9" y="369.407318"/>
      </g>
     </g>
    </g>
    <g id="ytick_17">
     <g id="line2d_39">
      <path clip-path="url(#p2621df9e76)" d="M 76.5 363.077883 
L 550.8 363.077883 
" style="fill:none;stroke:#ffffff;stroke-linecap:square;stroke-width:0.8;"/>
     </g>
     <g id="line2d_40">
      <g>
       <use style="fill:#555555;stroke:#555555;stroke-width:0.6;" x="76.5" xlink:href="#m7575272ed9" y="363.077883"/>
      </g>
     </g>
    </g>
    <g id="ytick_18">
     <g id="line2d_41">
      <path clip-path="url(#p2621df9e76)" d="M 76.5 357.595077 
L 550.8 357.595077 
" style="fill:none;stroke:#ffffff;stroke-linecap:square;stroke-width:0.8;"/>
     </g>
     <g id="line2d_42">
      <g>
       <use style="fill:#555555;stroke:#555555;stroke-width:0.6;" x="76.5" xlink:href="#m7575272ed9" y="357.595077"/>
      </g>
     </g>
    </g>
    <g id="ytick_19">
     <g id="line2d_43">
      <path clip-path="url(#p2621df9e76)" d="M 76.5 352.758899 
L 550.8 352.758899 
" style="fill:none;stroke:#ffffff;stroke-linecap:square;stroke-width:0.8;"/>
     </g>
     <g id="line2d_44">
      <g>
       <use style="fill:#555555;stroke:#555555;stroke-width:0.6;" x="76.5" xlink:href="#m7575272ed9" y="352.758899"/>
      </g>
     </g>
    </g>
    <g id="ytick_20">
     <g id="line2d_45">
      <path clip-path="url(#p2621df9e76)" d="M 76.5 319.972132 
L 550.8 319.972132 
" style="fill:none;stroke:#ffffff;stroke-linecap:square;stroke-width:0.8;"/>
     </g>
     <g id="line2d_46">
      <g>
       <use style="fill:#555555;stroke:#555555;stroke-width:0.6;" x="76.5" xlink:href="#m7575272ed9" y="319.972132"/>
      </g>
     </g>
    </g>
    <g id="ytick_21">
     <g id="line2d_47">
      <path clip-path="url(#p2621df9e76)" d="M 76.5 303.323713 
L 550.8 303.323713 
" style="fill:none;stroke:#ffffff;stroke-linecap:square;stroke-width:0.8;"/>
     </g>
     <g id="line2d_48">
      <g>
       <use style="fill:#555555;stroke:#555555;stroke-width:0.6;" x="76.5" xlink:href="#m7575272ed9" y="303.323713"/>
      </g>
     </g>
    </g>
    <g id="ytick_22">
     <g id="line2d_49">
      <path clip-path="url(#p2621df9e76)" d="M 76.5 291.511473 
L 550.8 291.511473 
" style="fill:none;stroke:#ffffff;stroke-linecap:square;stroke-width:0.8;"/>
     </g>
     <g id="line2d_50">
      <g>
       <use style="fill:#555555;stroke:#555555;stroke-width:0.6;" x="76.5" xlink:href="#m7575272ed9" y="291.511473"/>
      </g>
     </g>
    </g>
    <g id="ytick_23">
     <g id="line2d_51">
      <path clip-path="url(#p2621df9e76)" d="M 76.5 282.349187 
L 550.8 282.349187 
" style="fill:none;stroke:#ffffff;stroke-linecap:square;stroke-width:0.8;"/>
     </g>
     <g id="line2d_52">
      <g>
       <use style="fill:#555555;stroke:#555555;stroke-width:0.6;" x="76.5" xlink:href="#m7575272ed9" y="282.349187"/>
      </g>
     </g>
    </g>
    <g id="ytick_24">
     <g id="line2d_53">
      <path clip-path="url(#p2621df9e76)" d="M 76.5 274.863054 
L 550.8 274.863054 
" style="fill:none;stroke:#ffffff;stroke-linecap:square;stroke-width:0.8;"/>
     </g>
     <g id="line2d_54">
      <g>
       <use style="fill:#555555;stroke:#555555;stroke-width:0.6;" x="76.5" xlink:href="#m7575272ed9" y="274.863054"/>
      </g>
     </g>
    </g>
    <g id="ytick_25">
     <g id="line2d_55">
      <path clip-path="url(#p2621df9e76)" d="M 76.5 268.533619 
L 550.8 268.533619 
" style="fill:none;stroke:#ffffff;stroke-linecap:square;stroke-width:0.8;"/>
     </g>
     <g id="line2d_56">
      <g>
       <use style="fill:#555555;stroke:#555555;stroke-width:0.6;" x="76.5" xlink:href="#m7575272ed9" y="268.533619"/>
      </g>
     </g>
    </g>
    <g id="ytick_26">
     <g id="line2d_57">
      <path clip-path="url(#p2621df9e76)" d="M 76.5 263.050813 
L 550.8 263.050813 
" style="fill:none;stroke:#ffffff;stroke-linecap:square;stroke-width:0.8;"/>
     </g>
     <g id="line2d_58">
      <g>
       <use style="fill:#555555;stroke:#555555;stroke-width:0.6;" x="76.5" xlink:href="#m7575272ed9" y="263.050813"/>
      </g>
     </g>
    </g>
    <g id="ytick_27">
     <g id="line2d_59">
      <path clip-path="url(#p2621df9e76)" d="M 76.5 258.214636 
L 550.8 258.214636 
" style="fill:none;stroke:#ffffff;stroke-linecap:square;stroke-width:0.8;"/>
     </g>
     <g id="line2d_60">
      <g>
       <use style="fill:#555555;stroke:#555555;stroke-width:0.6;" x="76.5" xlink:href="#m7575272ed9" y="258.214636"/>
      </g>
     </g>
    </g>
    <g id="ytick_28">
     <g id="line2d_61">
      <path clip-path="url(#p2621df9e76)" d="M 76.5 225.427868 
L 550.8 225.427868 
" style="fill:none;stroke:#ffffff;stroke-linecap:square;stroke-width:0.8;"/>
     </g>
     <g id="line2d_62">
      <g>
       <use style="fill:#555555;stroke:#555555;stroke-width:0.6;" x="76.5" xlink:href="#m7575272ed9" y="225.427868"/>
      </g>
     </g>
    </g>
    <g id="ytick_29">
     <g id="line2d_63">
      <path clip-path="url(#p2621df9e76)" d="M 76.5 208.77945 
L 550.8 208.77945 
" style="fill:none;stroke:#ffffff;stroke-linecap:square;stroke-width:0.8;"/>
     </g>
     <g id="line2d_64">
      <g>
       <use style="fill:#555555;stroke:#555555;stroke-width:0.6;" x="76.5" xlink:href="#m7575272ed9" y="208.77945"/>
      </g>
     </g>
    </g>
    <g id="ytick_30">
     <g id="line2d_65">
      <path clip-path="url(#p2621df9e76)" d="M 76.5 196.967209 
L 550.8 196.967209 
" style="fill:none;stroke:#ffffff;stroke-linecap:square;stroke-width:0.8;"/>
     </g>
     <g id="line2d_66">
      <g>
       <use style="fill:#555555;stroke:#555555;stroke-width:0.6;" x="76.5" xlink:href="#m7575272ed9" y="196.967209"/>
      </g>
     </g>
    </g>
    <g id="ytick_31">
     <g id="line2d_67">
      <path clip-path="url(#p2621df9e76)" d="M 76.5 187.804923 
L 550.8 187.804923 
" style="fill:none;stroke:#ffffff;stroke-linecap:square;stroke-width:0.8;"/>
     </g>
     <g id="line2d_68">
      <g>
       <use style="fill:#555555;stroke:#555555;stroke-width:0.6;" x="76.5" xlink:href="#m7575272ed9" y="187.804923"/>
      </g>
     </g>
    </g>
    <g id="ytick_32">
     <g id="line2d_69">
      <path clip-path="url(#p2621df9e76)" d="M 76.5 180.31879 
L 550.8 180.31879 
" style="fill:none;stroke:#ffffff;stroke-linecap:square;stroke-width:0.8;"/>
     </g>
     <g id="line2d_70">
      <g>
       <use style="fill:#555555;stroke:#555555;stroke-width:0.6;" x="76.5" xlink:href="#m7575272ed9" y="180.31879"/>
      </g>
     </g>
    </g>
    <g id="ytick_33">
     <g id="line2d_71">
      <path clip-path="url(#p2621df9e76)" d="M 76.5 173.989355 
L 550.8 173.989355 
" style="fill:none;stroke:#ffffff;stroke-linecap:square;stroke-width:0.8;"/>
     </g>
     <g id="line2d_72">
      <g>
       <use style="fill:#555555;stroke:#555555;stroke-width:0.6;" x="76.5" xlink:href="#m7575272ed9" y="173.989355"/>
      </g>
     </g>
    </g>
    <g id="ytick_34">
     <g id="line2d_73">
      <path clip-path="url(#p2621df9e76)" d="M 76.5 168.50655 
L 550.8 168.50655 
" style="fill:none;stroke:#ffffff;stroke-linecap:square;stroke-width:0.8;"/>
     </g>
     <g id="line2d_74">
      <g>
       <use style="fill:#555555;stroke:#555555;stroke-width:0.6;" x="76.5" xlink:href="#m7575272ed9" y="168.50655"/>
      </g>
     </g>
    </g>
    <g id="ytick_35">
     <g id="line2d_75">
      <path clip-path="url(#p2621df9e76)" d="M 76.5 163.670372 
L 550.8 163.670372 
" style="fill:none;stroke:#ffffff;stroke-linecap:square;stroke-width:0.8;"/>
     </g>
     <g id="line2d_76">
      <g>
       <use style="fill:#555555;stroke:#555555;stroke-width:0.6;" x="76.5" xlink:href="#m7575272ed9" y="163.670372"/>
      </g>
     </g>
    </g>
    <g id="ytick_36">
     <g id="line2d_77">
      <path clip-path="url(#p2621df9e76)" d="M 76.5 130.883604 
L 550.8 130.883604 
" style="fill:none;stroke:#ffffff;stroke-linecap:square;stroke-width:0.8;"/>
     </g>
     <g id="line2d_78">
      <g>
       <use style="fill:#555555;stroke:#555555;stroke-width:0.6;" x="76.5" xlink:href="#m7575272ed9" y="130.883604"/>
      </g>
     </g>
    </g>
    <g id="ytick_37">
     <g id="line2d_79">
      <path clip-path="url(#p2621df9e76)" d="M 76.5 114.235186 
L 550.8 114.235186 
" style="fill:none;stroke:#ffffff;stroke-linecap:square;stroke-width:0.8;"/>
     </g>
     <g id="line2d_80">
      <g>
       <use style="fill:#555555;stroke:#555555;stroke-width:0.6;" x="76.5" xlink:href="#m7575272ed9" y="114.235186"/>
      </g>
     </g>
    </g>
    <g id="ytick_38">
     <g id="line2d_81">
      <path clip-path="url(#p2621df9e76)" d="M 76.5 102.422945 
L 550.8 102.422945 
" style="fill:none;stroke:#ffffff;stroke-linecap:square;stroke-width:0.8;"/>
     </g>
     <g id="line2d_82">
      <g>
       <use style="fill:#555555;stroke:#555555;stroke-width:0.6;" x="76.5" xlink:href="#m7575272ed9" y="102.422945"/>
      </g>
     </g>
    </g>
    <g id="ytick_39">
     <g id="line2d_83">
      <path clip-path="url(#p2621df9e76)" d="M 76.5 93.260659 
L 550.8 93.260659 
" style="fill:none;stroke:#ffffff;stroke-linecap:square;stroke-width:0.8;"/>
     </g>
     <g id="line2d_84">
      <g>
       <use style="fill:#555555;stroke:#555555;stroke-width:0.6;" x="76.5" xlink:href="#m7575272ed9" y="93.260659"/>
      </g>
     </g>
    </g>
    <g id="ytick_40">
     <g id="line2d_85">
      <path clip-path="url(#p2621df9e76)" d="M 76.5 85.774527 
L 550.8 85.774527 
" style="fill:none;stroke:#ffffff;stroke-linecap:square;stroke-width:0.8;"/>
     </g>
     <g id="line2d_86">
      <g>
       <use style="fill:#555555;stroke:#555555;stroke-width:0.6;" x="76.5" xlink:href="#m7575272ed9" y="85.774527"/>
      </g>
     </g>
    </g>
    <g id="ytick_41">
     <g id="line2d_87">
      <path clip-path="url(#p2621df9e76)" d="M 76.5 79.445092 
L 550.8 79.445092 
" style="fill:none;stroke:#ffffff;stroke-linecap:square;stroke-width:0.8;"/>
     </g>
     <g id="line2d_88">
      <g>
       <use style="fill:#555555;stroke:#555555;stroke-width:0.6;" x="76.5" xlink:href="#m7575272ed9" y="79.445092"/>
      </g>
     </g>
    </g>
    <g id="ytick_42">
     <g id="line2d_89">
      <path clip-path="url(#p2621df9e76)" d="M 76.5 73.962286 
L 550.8 73.962286 
" style="fill:none;stroke:#ffffff;stroke-linecap:square;stroke-width:0.8;"/>
     </g>
     <g id="line2d_90">
      <g>
       <use style="fill:#555555;stroke:#555555;stroke-width:0.6;" x="76.5" xlink:href="#m7575272ed9" y="73.962286"/>
      </g>
     </g>
    </g>
    <g id="ytick_43">
     <g id="line2d_91">
      <path clip-path="url(#p2621df9e76)" d="M 76.5 69.126108 
L 550.8 69.126108 
" style="fill:none;stroke:#ffffff;stroke-linecap:square;stroke-width:0.8;"/>
     </g>
     <g id="line2d_92">
      <g>
       <use style="fill:#555555;stroke:#555555;stroke-width:0.6;" x="76.5" xlink:href="#m7575272ed9" y="69.126108"/>
      </g>
     </g>
    </g>
   </g>
   <g id="line2d_93">
    <defs>
     <path d="M 0 3 
C 0.795609 3 1.55874 2.683901 2.12132 2.12132 
C 2.683901 1.55874 3 0.795609 3 0 
C 3 -0.795609 2.683901 -1.55874 2.12132 -2.12132 
C 1.55874 -2.683901 0.795609 -3 0 -3 
C -0.795609 -3 -1.55874 -2.683901 -2.12132 -2.12132 
C -2.683901 -1.55874 -3 -0.795609 -3 0 
C -3 0.795609 -2.683901 1.55874 -2.12132 2.12132 
C -1.55874 2.683901 -0.795609 3 0 3 
z
" id="mf352048ef6" style="stroke:#e24a33;"/>
    </defs>
    <g clip-path="url(#p2621df9e76)">
     <use style="fill:#e24a33;stroke:#e24a33;" x="95.421543" xlink:href="#mf352048ef6" y="457.380283"/>
     <use style="fill:#e24a33;stroke:#e24a33;" x="99.302885" xlink:href="#mf352048ef6" y="470.67557"/>
     <use style="fill:#e24a33;stroke:#e24a33;" x="120.165098" xlink:href="#mf352048ef6" y="414.1706"/>
     <use style="fill:#e24a33;stroke:#e24a33;" x="173.048384" xlink:href="#mf352048ef6" y="376.500619"/>
     <use style="fill:#e24a33;stroke:#e24a33;" x="200.702946" xlink:href="#mf352048ef6" y="368.745035"/>
     <use style="fill:#e24a33;stroke:#e24a33;" x="237.090528" xlink:href="#mf352048ef6" y="328.859174"/>
     <use style="fill:#e24a33;stroke:#e24a33;" x="240.486702" xlink:href="#mf352048ef6" y="328.859174"/>
     <use style="fill:#e24a33;stroke:#e24a33;" x="264.74509" xlink:href="#mf352048ef6" y="291.189194"/>
     <use style="fill:#e24a33;stroke:#e24a33;" x="272.992942" xlink:href="#mf352048ef6" y="311.132125"/>
     <use style="fill:#e24a33;stroke:#e24a33;" x="284.1518" xlink:href="#mf352048ef6" y="298.944778"/>
     <use style="fill:#e24a33;stroke:#e24a33;" x="302.588175" xlink:href="#mf352048ef6" y="271.246263"/>
     <use style="fill:#e24a33;stroke:#e24a33;" x="305.499182" xlink:href="#mf352048ef6" y="274.570085"/>
     <use style="fill:#e24a33;stroke:#e24a33;" x="305.499182" xlink:href="#mf352048ef6" y="253.519214"/>
     <use style="fill:#e24a33;stroke:#e24a33;" x="308.895356" xlink:href="#mf352048ef6" y="225.820699"/>
     <use style="fill:#e24a33;stroke:#e24a33;" x="312.776698" xlink:href="#mf352048ef6" y="270.138323"/>
     <use style="fill:#e24a33;stroke:#e24a33;" x="312.776698" xlink:href="#mf352048ef6" y="291.189194"/>
     <use style="fill:#e24a33;stroke:#e24a33;" x="325.876227" xlink:href="#mf352048ef6" y="236.900105"/>
     <use style="fill:#e24a33;stroke:#e24a33;" x="325.876227" xlink:href="#mf352048ef6" y="209.20159"/>
     <use style="fill:#e24a33;stroke:#e24a33;" x="333.153744" xlink:href="#mf352048ef6" y="209.20159"/>
     <use style="fill:#e24a33;stroke:#e24a33;" x="336.06475" xlink:href="#mf352048ef6" y="257.950976"/>
     <use style="fill:#e24a33;stroke:#e24a33;" x="339.946092" xlink:href="#mf352048ef6" y="225.820699"/>
     <use style="fill:#e24a33;stroke:#e24a33;" x="342.371931" xlink:href="#mf352048ef6" y="225.820699"/>
     <use style="fill:#e24a33;stroke:#e24a33;" x="343.342267" xlink:href="#mf352048ef6" y="257.950976"/>
     <use style="fill:#e24a33;stroke:#e24a33;" x="347.223609" xlink:href="#mf352048ef6" y="187.042778"/>
     <use style="fill:#e24a33;stroke:#e24a33;" x="352.560454" xlink:href="#mf352048ef6" y="215.849234"/>
     <use style="fill:#e24a33;stroke:#e24a33;" x="353.53079" xlink:href="#mf352048ef6" y="184.826897"/>
     <use style="fill:#e24a33;stroke:#e24a33;" x="354.501125" xlink:href="#mf352048ef6" y="219.173056"/>
     <use style="fill:#e24a33;stroke:#e24a33;" x="355.471461" xlink:href="#mf352048ef6" y="209.20159"/>
     <use style="fill:#e24a33;stroke:#e24a33;" x="367.600655" xlink:href="#mf352048ef6" y="188.150719"/>
     <use style="fill:#e24a33;stroke:#e24a33;" x="370.511661" xlink:href="#mf352048ef6" y="209.20159"/>
     <use style="fill:#e24a33;stroke:#e24a33;" x="370.996829" xlink:href="#mf352048ef6" y="197.014244"/>
     <use style="fill:#e24a33;stroke:#e24a33;" x="373.907836" xlink:href="#mf352048ef6" y="191.474541"/>
     <use style="fill:#e24a33;stroke:#e24a33;" x="373.907836" xlink:href="#mf352048ef6" y="187.042778"/>
     <use style="fill:#e24a33;stroke:#e24a33;" x="381.185352" xlink:href="#mf352048ef6" y="171.53161"/>
     <use style="fill:#e24a33;stroke:#e24a33;" x="386.037029" xlink:href="#mf352048ef6" y="159.344264"/>
     <use style="fill:#e24a33;stroke:#e24a33;" x="390.403539" xlink:href="#mf352048ef6" y="163.776026"/>
     <use style="fill:#e24a33;stroke:#e24a33;" x="391.373875" xlink:href="#mf352048ef6" y="130.537808"/>
     <use style="fill:#e24a33;stroke:#e24a33;" x="396.225552" xlink:href="#mf352048ef6" y="168.207788"/>
     <use style="fill:#e24a33;stroke:#e24a33;" x="397.195888" xlink:href="#mf352048ef6" y="144.941036"/>
     <use style="fill:#e24a33;stroke:#e24a33;" x="403.503069" xlink:href="#mf352048ef6" y="126.106046"/>
     <use style="fill:#e24a33;stroke:#e24a33;" x="407.384411" xlink:href="#mf352048ef6" y="134.969571"/>
     <use style="fill:#e24a33;stroke:#e24a33;" x="408.354746" xlink:href="#mf352048ef6" y="159.344264"/>
     <use style="fill:#e24a33;stroke:#e24a33;" x="413.691592" xlink:href="#mf352048ef6" y="152.69662"/>
     <use style="fill:#e24a33;stroke:#e24a33;" x="414.661927" xlink:href="#mf352048ef6" y="127.213987"/>
     <use style="fill:#e24a33;stroke:#e24a33;" x="415.632263" xlink:href="#mf352048ef6" y="134.969571"/>
     <use style="fill:#e24a33;stroke:#e24a33;" x="427.761457" xlink:href="#mf352048ef6" y="119.458402"/>
     <use style="fill:#e24a33;stroke:#e24a33;" x="427.761457" xlink:href="#mf352048ef6" y="132.75369"/>
     <use style="fill:#e24a33;stroke:#e24a33;" x="428.246624" xlink:href="#mf352048ef6" y="106.163115"/>
     <use style="fill:#e24a33;stroke:#e24a33;" x="436.979644" xlink:href="#mf352048ef6" y="111.702818"/>
     <use style="fill:#e24a33;stroke:#e24a33;" x="438.435147" xlink:href="#mf352048ef6" y="117.242521"/>
     <use style="fill:#e24a33;stroke:#e24a33;" x="439.405483" xlink:href="#mf352048ef6" y="151.58868"/>
     <use style="fill:#e24a33;stroke:#e24a33;" x="439.890651" xlink:href="#mf352048ef6" y="126.106046"/>
     <use style="fill:#e24a33;stroke:#e24a33;" x="448.62367" xlink:href="#mf352048ef6" y="106.163115"/>
     <use style="fill:#e24a33;stroke:#e24a33;" x="448.62367" xlink:href="#mf352048ef6" y="119.458402"/>
     <use style="fill:#e24a33;stroke:#e24a33;" x="450.079173" xlink:href="#mf352048ef6" y="118.350462"/>
     <use style="fill:#e24a33;stroke:#e24a33;" x="450.564341" xlink:href="#mf352048ef6" y="124.998105"/>
     <use style="fill:#e24a33;stroke:#e24a33;" x="456.386354" xlink:href="#mf352048ef6" y="115.02664"/>
     <use style="fill:#e24a33;stroke:#e24a33;" x="457.35669" xlink:href="#mf352048ef6" y="96.19165"/>
     <use style="fill:#e24a33;stroke:#e24a33;" x="457.35669" xlink:href="#mf352048ef6" y="101.731353"/>
     <use style="fill:#e24a33;stroke:#e24a33;" x="458.327025" xlink:href="#mf352048ef6" y="130.537808"/>
     <use style="fill:#e24a33;stroke:#e24a33;" x="459.782529" xlink:href="#mf352048ef6" y="144.941036"/>
     <use style="fill:#e24a33;stroke:#e24a33;" x="461.7232" xlink:href="#mf352048ef6" y="130.537808"/>
     <use style="fill:#e24a33;stroke:#e24a33;" x="461.7232" xlink:href="#mf352048ef6" y="124.998105"/>
     <use style="fill:#e24a33;stroke:#e24a33;" x="464.634206" xlink:href="#mf352048ef6" y="113.9187"/>
     <use style="fill:#e24a33;stroke:#e24a33;" x="471.911723" xlink:href="#mf352048ef6" y="121.674284"/>
     <use style="fill:#e24a33;stroke:#e24a33;" x="472.882058" xlink:href="#mf352048ef6" y="110.594878"/>
     <use style="fill:#e24a33;stroke:#e24a33;" x="474.337561" xlink:href="#mf352048ef6" y="119.458402"/>
     <use style="fill:#e24a33;stroke:#e24a33;" x="476.7634" xlink:href="#mf352048ef6" y="119.458402"/>
     <use style="fill:#e24a33;stroke:#e24a33;" x="477.248568" xlink:href="#mf352048ef6" y="110.594878"/>
     <use style="fill:#e24a33;stroke:#e24a33;" x="482.100245" xlink:href="#mf352048ef6" y="124.998105"/>
     <use style="fill:#e24a33;stroke:#e24a33;" x="491.865702" xlink:href="#mf352048ef6" y="108.259211"/>
     <use style="fill:#e24a33;stroke:#e24a33;" x="493.48034" xlink:href="#mf352048ef6" y="123.397472"/>
     <use style="fill:#e24a33;stroke:#e24a33;" x="499.333404" xlink:href="#mf352048ef6" y="114.235186"/>
     <use style="fill:#e24a33;stroke:#e24a33;" x="504.379149" xlink:href="#mf352048ef6" y="112.888834"/>
     <use style="fill:#e24a33;stroke:#e24a33;" x="504.480064" xlink:href="#mf352048ef6" y="115.627185"/>
     <use style="fill:#e24a33;stroke:#e24a33;" x="507.406596" xlink:href="#mf352048ef6" y="105.62405"/>
     <use style="fill:#e24a33;stroke:#e24a33;" x="509.424894" xlink:href="#mf352048ef6" y="121.721319"/>
     <use style="fill:#e24a33;stroke:#e24a33;" x="514.470638" xlink:href="#mf352048ef6" y="151.858131"/>
     <use style="fill:#e24a33;stroke:#e24a33;" x="518.507234" xlink:href="#mf352048ef6" y="118.561294"/>
     <use style="fill:#e24a33;stroke:#e24a33;" x="522.14017" xlink:href="#mf352048ef6" y="117.068037"/>
     <use style="fill:#e24a33;stroke:#e24a33;" x="525.571277" xlink:href="#mf352048ef6" y="105.62405"/>
     <use style="fill:#e24a33;stroke:#e24a33;" x="528.598723" xlink:href="#mf352048ef6" y="111.585231"/>
     <use style="fill:#e24a33;stroke:#e24a33;" x="528.699638" xlink:href="#mf352048ef6" y="120.110914"/>
     <use style="fill:#e24a33;stroke:#e24a33;" x="528.800553" xlink:href="#mf352048ef6" y="125.144972"/>
    </g>
   </g>
   <g id="line2d_94">
    <defs>
     <path d="M 0 3 
C 0.795609 3 1.55874 2.683901 2.12132 2.12132 
C 2.683901 1.55874 3 0.795609 3 0 
C 3 -0.795609 2.683901 -1.55874 2.12132 -2.12132 
C 1.55874 -2.683901 0.795609 -3 0 -3 
C -0.795609 -3 -1.55874 -2.683901 -2.12132 -2.12132 
C -2.683901 -1.55874 -3 -0.795609 -3 0 
C -3 0.795609 -2.683901 1.55874 -2.12132 2.12132 
C -1.55874 2.683901 -0.795609 3 0 3 
z
" id="m94b2ed2289" style="stroke:#00008b;"/>
    </defs>
    <g clip-path="url(#p2621df9e76)">
     <use style="fill:#00008b;stroke:#00008b;" x="530.617021" xlink:href="#m94b2ed2289" y="125.144972"/>
    </g>
   </g>
   <g id="patch_3">
    <path d="M 76.5 480.6 
L 76.5 64.8 
" style="fill:none;stroke:#ffffff;stroke-linecap:square;stroke-linejoin:miter;"/>
   </g>
   <g id="patch_4">
    <path d="M 550.8 480.6 
L 550.8 64.8 
" style="fill:none;stroke:#ffffff;stroke-linecap:square;stroke-linejoin:miter;"/>
   </g>
   <g id="patch_5">
    <path d="M 76.5 480.6 
L 550.8 480.6 
" style="fill:none;stroke:#ffffff;stroke-linecap:square;stroke-linejoin:miter;"/>
   </g>
   <g id="patch_6">
    <path d="M 76.5 64.8 
L 550.8 64.8 
" style="fill:none;stroke:#ffffff;stroke-linecap:square;stroke-linejoin:miter;"/>
   </g>
   <g id="text_13">
    <!-- CPU clock rate -->
    <defs>
     <path d="M 64.40625 67.28125 
L 64.40625 56.890625 
Q 59.421875 61.53125 53.78125 63.8125 
Q 48.140625 66.109375 41.796875 66.109375 
Q 29.296875 66.109375 22.65625 58.46875 
Q 16.015625 50.828125 16.015625 36.375 
Q 16.015625 21.96875 22.65625 14.328125 
Q 29.296875 6.6875 41.796875 6.6875 
Q 48.140625 6.6875 53.78125 8.984375 
Q 59.421875 11.28125 64.40625 15.921875 
L 64.40625 5.609375 
Q 59.234375 2.09375 53.4375 0.328125 
Q 47.65625 -1.421875 41.21875 -1.421875 
Q 24.65625 -1.421875 15.125 8.703125 
Q 5.609375 18.84375 5.609375 36.375 
Q 5.609375 53.953125 15.125 64.078125 
Q 24.65625 74.21875 41.21875 74.21875 
Q 47.75 74.21875 53.53125 72.484375 
Q 59.328125 70.75 64.40625 67.28125 
" id="DejaVuSans-43"/>
     <path d="M 19.671875 64.796875 
L 19.671875 37.40625 
L 32.078125 37.40625 
Q 38.96875 37.40625 42.71875 40.96875 
Q 46.484375 44.53125 46.484375 51.125 
Q 46.484375 57.671875 42.71875 61.234375 
Q 38.96875 64.796875 32.078125 64.796875 
z
M 9.8125 72.90625 
L 32.078125 72.90625 
Q 44.34375 72.90625 50.609375 67.359375 
Q 56.890625 61.8125 56.890625 51.125 
Q 56.890625 40.328125 50.609375 34.8125 
Q 44.34375 29.296875 32.078125 29.296875 
L 19.671875 29.296875 
L 19.671875 0 
L 9.8125 0 
z
" id="DejaVuSans-50"/>
     <path d="M 8.6875 72.90625 
L 18.609375 72.90625 
L 18.609375 28.609375 
Q 18.609375 16.890625 22.84375 11.734375 
Q 27.09375 6.59375 36.625 6.59375 
Q 46.09375 6.59375 50.34375 11.734375 
Q 54.59375 16.890625 54.59375 28.609375 
L 54.59375 72.90625 
L 64.5 72.90625 
L 64.5 27.390625 
Q 64.5 13.140625 57.4375 5.859375 
Q 50.390625 -1.421875 36.625 -1.421875 
Q 22.796875 -1.421875 15.734375 5.859375 
Q 8.6875 13.140625 8.6875 27.390625 
z
" id="DejaVuSans-55"/>
     <path d="M 48.78125 52.59375 
L 48.78125 44.1875 
Q 44.96875 46.296875 41.140625 47.34375 
Q 37.3125 48.390625 33.40625 48.390625 
Q 24.65625 48.390625 19.8125 42.84375 
Q 14.984375 37.3125 14.984375 27.296875 
Q 14.984375 17.28125 19.8125 11.734375 
Q 24.65625 6.203125 33.40625 6.203125 
Q 37.3125 6.203125 41.140625 7.25 
Q 44.96875 8.296875 48.78125 10.40625 
L 48.78125 2.09375 
Q 45.015625 0.34375 40.984375 -0.53125 
Q 36.96875 -1.421875 32.421875 -1.421875 
Q 20.0625 -1.421875 12.78125 6.34375 
Q 5.515625 14.109375 5.515625 27.296875 
Q 5.515625 40.671875 12.859375 48.328125 
Q 20.21875 56 33.015625 56 
Q 37.15625 56 41.109375 55.140625 
Q 45.0625 54.296875 48.78125 52.59375 
" id="DejaVuSans-63"/>
     <path d="M 9.421875 75.984375 
L 18.40625 75.984375 
L 18.40625 0 
L 9.421875 0 
z
" id="DejaVuSans-6c"/>
     <path d="M 30.609375 48.390625 
Q 23.390625 48.390625 19.1875 42.75 
Q 14.984375 37.109375 14.984375 27.296875 
Q 14.984375 17.484375 19.15625 11.84375 
Q 23.34375 6.203125 30.609375 6.203125 
Q 37.796875 6.203125 41.984375 11.859375 
Q 46.1875 17.53125 46.1875 27.296875 
Q 46.1875 37.015625 41.984375 42.703125 
Q 37.796875 48.390625 30.609375 48.390625 
M 30.609375 56 
Q 42.328125 56 49.015625 48.375 
Q 55.71875 40.765625 55.71875 27.296875 
Q 55.71875 13.875 49.015625 6.21875 
Q 42.328125 -1.421875 30.609375 -1.421875 
Q 18.84375 -1.421875 12.171875 6.21875 
Q 5.515625 13.875 5.515625 27.296875 
Q 5.515625 40.765625 12.171875 48.375 
Q 18.84375 56 30.609375 56 
" id="DejaVuSans-6f"/>
     <path d="M 9.078125 75.984375 
L 18.109375 75.984375 
L 18.109375 31.109375 
L 44.921875 54.6875 
L 56.390625 54.6875 
L 27.390625 29.109375 
L 57.625 0 
L 45.90625 0 
L 18.109375 26.703125 
L 18.109375 0 
L 9.078125 0 
z
" id="DejaVuSans-6b"/>
     <path d="M 18.3125 70.21875 
L 18.3125 54.6875 
L 36.8125 54.6875 
L 36.8125 47.703125 
L 18.3125 47.703125 
L 18.3125 18.015625 
Q 18.3125 11.328125 20.140625 9.421875 
Q 21.96875 7.515625 27.59375 7.515625 
L 36.8125 7.515625 
L 36.8125 0 
L 27.59375 0 
Q 17.1875 0 13.234375 3.875 
Q 9.28125 7.765625 9.28125 18.015625 
L 9.28125 47.703125 
L 2.6875 47.703125 
L 2.6875 54.6875 
L 9.28125 54.6875 
L 9.28125 70.21875 
z
" id="DejaVuSans-74"/>
    </defs>
    <g transform="translate(250.8507 58.8)scale(0.1728 -0.1728)">
     <use xlink:href="#DejaVuSans-43"/>
     <use x="69.824219" xlink:href="#DejaVuSans-50"/>
     <use x="130.126953" xlink:href="#DejaVuSans-55"/>
     <use x="203.320312" xlink:href="#DejaVuSans-20"/>
     <use x="235.107422" xlink:href="#DejaVuSans-63"/>
     <use x="290.087891" xlink:href="#DejaVuSans-6c"/>
     <use x="317.871094" xlink:href="#DejaVuSans-6f"/>
     <use x="379.052734" xlink:href="#DejaVuSans-63"/>
     <use x="434.033203" xlink:href="#DejaVuSans-6b"/>
     <use x="491.943359" xlink:href="#DejaVuSans-20"/>
     <use x="523.730469" xlink:href="#DejaVuSans-72"/>
     <use x="564.84375" xlink:href="#DejaVuSans-61"/>
     <use x="626.123047" xlink:href="#DejaVuSans-74"/>
     <use x="665.332031" xlink:href="#DejaVuSans-65"/>
    </g>
   </g>
  </g>
 </g>
 <defs>
  <clipPath id="p2621df9e76">
   <rect height="415.8" width="474.3" x="76.5" y="64.8"/>
  </clipPath>
 </defs>
</svg>
