<?xml version="1.0" encoding="utf-8" standalone="no"?>
<!DOCTYPE svg PUBLIC "-//W3C//DTD SVG 1.1//EN"
  "http://www.w3.org/Graphics/SVG/1.1/DTD/svg11.dtd">
<!-- Created with matplotlib (http://matplotlib.org/) -->
<svg height="540pt" version="1.1" viewBox="0 0 612 540" width="612pt" xmlns="http://www.w3.org/2000/svg" xmlns:xlink="http://www.w3.org/1999/xlink">
 <defs>
  <style type="text/css">
*{stroke-linecap:butt;stroke-linejoin:round;}
  </style>
 </defs>
 <g id="figure_1">
  <g id="patch_1">
   <path d="M 0 540 
L 612 540 
L 612 0 
L 0 0 
z
" style="fill:#ffffff;"/>
  </g>
  <g id="axes_1">
   <g id="patch_2">
    <path d="M 76.5 480.6 
L 550.8 480.6 
L 550.8 64.8 
L 76.5 64.8 
z
" style="fill:#e5e5e5;"/>
   </g>
   <g id="matplotlib.axis_1">
    <g id="xtick_1">
     <g id="line2d_1">
      <defs>
       <path d="M 0 0 
L 0 3.5 
" id="m210730b39d" style="stroke:#555555;stroke-width:0.8;"/>
      </defs>
      <g>
       <use style="fill:#555555;stroke:#555555;stroke-width:0.8;" x="98.059091" xlink:href="#m210730b39d" y="480.6"/>
      </g>
     </g>
     <g id="text_1">
      <!-- 45 ns -->
      <defs>
       <path d="M 37.796875 64.3125 
L 12.890625 25.390625 
L 37.796875 25.390625 
z
M 35.203125 72.90625 
L 47.609375 72.90625 
L 47.609375 25.390625 
L 58.015625 25.390625 
L 58.015625 17.1875 
L 47.609375 17.1875 
L 47.609375 0 
L 37.796875 0 
L 37.796875 17.1875 
L 4.890625 17.1875 
L 4.890625 26.703125 
z
" id="DejaVuSans-34"/>
       <path d="M 10.796875 72.90625 
L 49.515625 72.90625 
L 49.515625 64.59375 
L 19.828125 64.59375 
L 19.828125 46.734375 
Q 21.96875 47.46875 24.109375 47.828125 
Q 26.265625 48.1875 28.421875 48.1875 
Q 40.625 48.1875 47.75 41.5 
Q 54.890625 34.8125 54.890625 23.390625 
Q 54.890625 11.625 47.5625 5.09375 
Q 40.234375 -1.421875 26.90625 -1.421875 
Q 22.3125 -1.421875 17.546875 -0.640625 
Q 12.796875 0.140625 7.71875 1.703125 
L 7.71875 11.625 
Q 12.109375 9.234375 16.796875 8.0625 
Q 21.484375 6.890625 26.703125 6.890625 
Q 35.15625 6.890625 40.078125 11.328125 
Q 45.015625 15.765625 45.015625 23.390625 
Q 45.015625 31 40.078125 35.4375 
Q 35.15625 39.890625 26.703125 39.890625 
Q 22.75 39.890625 18.8125 39.015625 
Q 14.890625 38.140625 10.796875 36.28125 
z
" id="DejaVuSans-35"/>
       <path id="DejaVuSans-20"/>
       <path d="M 54.890625 33.015625 
L 54.890625 0 
L 45.90625 0 
L 45.90625 32.71875 
Q 45.90625 40.484375 42.875 44.328125 
Q 39.84375 48.1875 33.796875 48.1875 
Q 26.515625 48.1875 22.3125 43.546875 
Q 18.109375 38.921875 18.109375 30.90625 
L 18.109375 0 
L 9.078125 0 
L 9.078125 54.6875 
L 18.109375 54.6875 
L 18.109375 46.1875 
Q 21.34375 51.125 25.703125 53.5625 
Q 30.078125 56 35.796875 56 
Q 45.21875 56 50.046875 50.171875 
Q 54.890625 44.34375 54.890625 33.015625 
" id="DejaVuSans-6e"/>
       <path d="M 44.28125 53.078125 
L 44.28125 44.578125 
Q 40.484375 46.53125 36.375 47.5 
Q 32.28125 48.484375 27.875 48.484375 
Q 21.1875 48.484375 17.84375 46.4375 
Q 14.5 44.390625 14.5 40.28125 
Q 14.5 37.15625 16.890625 35.375 
Q 19.28125 33.59375 26.515625 31.984375 
L 29.59375 31.296875 
Q 39.15625 29.25 43.1875 25.515625 
Q 47.21875 21.78125 47.21875 15.09375 
Q 47.21875 7.46875 41.1875 3.015625 
Q 35.15625 -1.421875 24.609375 -1.421875 
Q 20.21875 -1.421875 15.453125 -0.5625 
Q 10.6875 0.296875 5.421875 2 
L 5.421875 11.28125 
Q 10.40625 8.6875 15.234375 7.390625 
Q 20.0625 6.109375 24.8125 6.109375 
Q 31.15625 6.109375 34.5625 8.28125 
Q 37.984375 10.453125 37.984375 14.40625 
Q 37.984375 18.0625 35.515625 20.015625 
Q 33.0625 21.96875 24.703125 23.78125 
L 21.578125 24.515625 
Q 13.234375 26.265625 9.515625 29.90625 
Q 5.8125 33.546875 5.8125 39.890625 
Q 5.8125 47.609375 11.28125 51.796875 
Q 16.75 56 26.8125 56 
Q 31.78125 56 36.171875 55.265625 
Q 40.578125 54.546875 44.28125 53.078125 
" id="DejaVuSans-73"/>
      </defs>
      <g style="fill:#555555;" transform="translate(68.284402 511.966528)rotate(-30)scale(0.12 -0.12)">
       <use xlink:href="#DejaVuSans-34"/>
       <use x="63.623047" xlink:href="#DejaVuSans-35"/>
       <use x="127.246094" xlink:href="#DejaVuSans-20"/>
       <use x="159.033203" xlink:href="#DejaVuSans-6e"/>
       <use x="222.412109" xlink:href="#DejaVuSans-73"/>
      </g>
     </g>
    </g>
    <g id="xtick_2">
     <g id="line2d_2">
      <g>
       <use style="fill:#555555;stroke:#555555;stroke-width:0.8;" x="133.257607" xlink:href="#m210730b39d" y="480.6"/>
      </g>
     </g>
     <g id="text_2">
      <!-- DDR-200 -->
      <defs>
       <path d="M 19.671875 64.796875 
L 19.671875 8.109375 
L 31.59375 8.109375 
Q 46.6875 8.109375 53.6875 14.9375 
Q 60.6875 21.78125 60.6875 36.53125 
Q 60.6875 51.171875 53.6875 57.984375 
Q 46.6875 64.796875 31.59375 64.796875 
z
M 9.8125 72.90625 
L 30.078125 72.90625 
Q 51.265625 72.90625 61.171875 64.09375 
Q 71.09375 55.28125 71.09375 36.53125 
Q 71.09375 17.671875 61.125 8.828125 
Q 51.171875 0 30.078125 0 
L 9.8125 0 
z
" id="DejaVuSans-44"/>
       <path d="M 44.390625 34.1875 
Q 47.5625 33.109375 50.5625 29.59375 
Q 53.5625 26.078125 56.59375 19.921875 
L 66.609375 0 
L 56 0 
L 46.6875 18.703125 
Q 43.0625 26.03125 39.671875 28.421875 
Q 36.28125 30.8125 30.421875 30.8125 
L 19.671875 30.8125 
L 19.671875 0 
L 9.8125 0 
L 9.8125 72.90625 
L 32.078125 72.90625 
Q 44.578125 72.90625 50.734375 67.671875 
Q 56.890625 62.453125 56.890625 51.90625 
Q 56.890625 45.015625 53.6875 40.46875 
Q 50.484375 35.9375 44.390625 34.1875 
M 19.671875 64.796875 
L 19.671875 38.921875 
L 32.078125 38.921875 
Q 39.203125 38.921875 42.84375 42.21875 
Q 46.484375 45.515625 46.484375 51.90625 
Q 46.484375 58.296875 42.84375 61.546875 
Q 39.203125 64.796875 32.078125 64.796875 
z
" id="DejaVuSans-52"/>
       <path d="M 4.890625 31.390625 
L 31.203125 31.390625 
L 31.203125 23.390625 
L 4.890625 23.390625 
z
" id="DejaVuSans-2d"/>
       <path d="M 19.1875 8.296875 
L 53.609375 8.296875 
L 53.609375 0 
L 7.328125 0 
L 7.328125 8.296875 
Q 12.9375 14.109375 22.625 23.890625 
Q 32.328125 33.6875 34.8125 36.53125 
Q 39.546875 41.84375 41.421875 45.53125 
Q 43.3125 49.21875 43.3125 52.78125 
Q 43.3125 58.59375 39.234375 62.25 
Q 35.15625 65.921875 28.609375 65.921875 
Q 23.96875 65.921875 18.8125 64.3125 
Q 13.671875 62.703125 7.8125 59.421875 
L 7.8125 69.390625 
Q 13.765625 71.78125 18.9375 73 
Q 24.125 74.21875 28.421875 74.21875 
Q 39.75 74.21875 46.484375 68.546875 
Q 53.21875 62.890625 53.21875 53.421875 
Q 53.21875 48.921875 51.53125 44.890625 
Q 49.859375 40.875 45.40625 35.40625 
Q 44.1875 33.984375 37.640625 27.21875 
Q 31.109375 20.453125 19.1875 8.296875 
" id="DejaVuSans-32"/>
       <path d="M 31.78125 66.40625 
Q 24.171875 66.40625 20.328125 58.90625 
Q 16.5 51.421875 16.5 36.375 
Q 16.5 21.390625 20.328125 13.890625 
Q 24.171875 6.390625 31.78125 6.390625 
Q 39.453125 6.390625 43.28125 13.890625 
Q 47.125 21.390625 47.125 36.375 
Q 47.125 51.421875 43.28125 58.90625 
Q 39.453125 66.40625 31.78125 66.40625 
M 31.78125 74.21875 
Q 44.046875 74.21875 50.515625 64.515625 
Q 56.984375 54.828125 56.984375 36.375 
Q 56.984375 17.96875 50.515625 8.265625 
Q 44.046875 -1.421875 31.78125 -1.421875 
Q 19.53125 -1.421875 13.0625 8.265625 
Q 6.59375 17.96875 6.59375 36.375 
Q 6.59375 54.828125 13.0625 64.515625 
Q 19.53125 74.21875 31.78125 74.21875 
" id="DejaVuSans-30"/>
      </defs>
      <g style="fill:#555555;" transform="translate(85.205451 522.519028)rotate(-30)scale(0.12 -0.12)">
       <use xlink:href="#DejaVuSans-44"/>
       <use x="77.001953" xlink:href="#DejaVuSans-44"/>
       <use x="154.003906" xlink:href="#DejaVuSans-52"/>
       <use x="223.423828" xlink:href="#DejaVuSans-2d"/>
       <use x="259.507812" xlink:href="#DejaVuSans-32"/>
       <use x="323.130859" xlink:href="#DejaVuSans-30"/>
       <use x="386.753906" xlink:href="#DejaVuSans-30"/>
      </g>
     </g>
    </g>
    <g id="xtick_3">
     <g id="line2d_3">
      <g>
       <use style="fill:#555555;stroke:#555555;stroke-width:0.8;" x="168.456122" xlink:href="#m210730b39d" y="480.6"/>
      </g>
     </g>
     <g id="text_3">
      <!-- DDR-400 -->
      <g style="fill:#555555;" transform="translate(120.403967 522.519028)rotate(-30)scale(0.12 -0.12)">
       <use xlink:href="#DejaVuSans-44"/>
       <use x="77.001953" xlink:href="#DejaVuSans-44"/>
       <use x="154.003906" xlink:href="#DejaVuSans-52"/>
       <use x="223.423828" xlink:href="#DejaVuSans-2d"/>
       <use x="259.507812" xlink:href="#DejaVuSans-34"/>
       <use x="323.130859" xlink:href="#DejaVuSans-30"/>
       <use x="386.753906" xlink:href="#DejaVuSans-30"/>
      </g>
     </g>
    </g>
    <g id="xtick_4">
     <g id="line2d_4">
      <g>
       <use style="fill:#555555;stroke:#555555;stroke-width:0.8;" x="203.654638" xlink:href="#m210730b39d" y="480.6"/>
      </g>
     </g>
     <g id="text_4">
      <!-- DDR-500 -->
      <g style="fill:#555555;" transform="translate(155.602483 522.519028)rotate(-30)scale(0.12 -0.12)">
       <use xlink:href="#DejaVuSans-44"/>
       <use x="77.001953" xlink:href="#DejaVuSans-44"/>
       <use x="154.003906" xlink:href="#DejaVuSans-52"/>
       <use x="223.423828" xlink:href="#DejaVuSans-2d"/>
       <use x="259.507812" xlink:href="#DejaVuSans-35"/>
       <use x="323.130859" xlink:href="#DejaVuSans-30"/>
       <use x="386.753906" xlink:href="#DejaVuSans-30"/>
      </g>
     </g>
    </g>
    <g id="xtick_5">
     <g id="line2d_5">
      <g>
       <use style="fill:#555555;stroke:#555555;stroke-width:0.8;" x="238.853154" xlink:href="#m210730b39d" y="480.6"/>
      </g>
     </g>
     <g id="text_5">
      <!-- DDR-600 -->
      <defs>
       <path d="M 33.015625 40.375 
Q 26.375 40.375 22.484375 35.828125 
Q 18.609375 31.296875 18.609375 23.390625 
Q 18.609375 15.53125 22.484375 10.953125 
Q 26.375 6.390625 33.015625 6.390625 
Q 39.65625 6.390625 43.53125 10.953125 
Q 47.40625 15.53125 47.40625 23.390625 
Q 47.40625 31.296875 43.53125 35.828125 
Q 39.65625 40.375 33.015625 40.375 
M 52.59375 71.296875 
L 52.59375 62.3125 
Q 48.875 64.0625 45.09375 64.984375 
Q 41.3125 65.921875 37.59375 65.921875 
Q 27.828125 65.921875 22.671875 59.328125 
Q 17.53125 52.734375 16.796875 39.40625 
Q 19.671875 43.65625 24.015625 45.921875 
Q 28.375 48.1875 33.59375 48.1875 
Q 44.578125 48.1875 50.953125 41.515625 
Q 57.328125 34.859375 57.328125 23.390625 
Q 57.328125 12.15625 50.6875 5.359375 
Q 44.046875 -1.421875 33.015625 -1.421875 
Q 20.359375 -1.421875 13.671875 8.265625 
Q 6.984375 17.96875 6.984375 36.375 
Q 6.984375 53.65625 15.1875 63.9375 
Q 23.390625 74.21875 37.203125 74.21875 
Q 40.921875 74.21875 44.703125 73.484375 
Q 48.484375 72.75 52.59375 71.296875 
" id="DejaVuSans-36"/>
      </defs>
      <g style="fill:#555555;" transform="translate(190.800999 522.519028)rotate(-30)scale(0.12 -0.12)">
       <use xlink:href="#DejaVuSans-44"/>
       <use x="77.001953" xlink:href="#DejaVuSans-44"/>
       <use x="154.003906" xlink:href="#DejaVuSans-52"/>
       <use x="223.423828" xlink:href="#DejaVuSans-2d"/>
       <use x="259.507812" xlink:href="#DejaVuSans-36"/>
       <use x="323.130859" xlink:href="#DejaVuSans-30"/>
       <use x="386.753906" xlink:href="#DejaVuSans-30"/>
      </g>
     </g>
    </g>
    <g id="xtick_6">
     <g id="line2d_6">
      <g>
       <use style="fill:#555555;stroke:#555555;stroke-width:0.8;" x="274.05167" xlink:href="#m210730b39d" y="480.6"/>
      </g>
     </g>
     <g id="text_6">
      <!-- DDR2-750 -->
      <defs>
       <path d="M 8.203125 72.90625 
L 55.078125 72.90625 
L 55.078125 68.703125 
L 28.609375 0 
L 18.3125 0 
L 43.21875 64.59375 
L 8.203125 64.59375 
z
" id="DejaVuSans-37"/>
      </defs>
      <g style="fill:#555555;" transform="translate(219.380915 526.340278)rotate(-30)scale(0.12 -0.12)">
       <use xlink:href="#DejaVuSans-44"/>
       <use x="77.001953" xlink:href="#DejaVuSans-44"/>
       <use x="154.003906" xlink:href="#DejaVuSans-52"/>
       <use x="223.486328" xlink:href="#DejaVuSans-32"/>
       <use x="287.109375" xlink:href="#DejaVuSans-2d"/>
       <use x="323.193359" xlink:href="#DejaVuSans-37"/>
       <use x="386.816406" xlink:href="#DejaVuSans-35"/>
       <use x="450.439453" xlink:href="#DejaVuSans-30"/>
      </g>
     </g>
    </g>
    <g id="xtick_7">
     <g id="line2d_7">
      <g>
       <use style="fill:#555555;stroke:#555555;stroke-width:0.8;" x="309.250186" xlink:href="#m210730b39d" y="480.6"/>
      </g>
     </g>
     <g id="text_7">
      <!-- DDR2-900 -->
      <defs>
       <path d="M 10.984375 1.515625 
L 10.984375 10.5 
Q 14.703125 8.734375 18.5 7.8125 
Q 22.3125 6.890625 25.984375 6.890625 
Q 35.75 6.890625 40.890625 13.453125 
Q 46.046875 20.015625 46.78125 33.40625 
Q 43.953125 29.203125 39.59375 26.953125 
Q 35.25 24.703125 29.984375 24.703125 
Q 19.046875 24.703125 12.671875 31.3125 
Q 6.296875 37.9375 6.296875 49.421875 
Q 6.296875 60.640625 12.9375 67.421875 
Q 19.578125 74.21875 30.609375 74.21875 
Q 43.265625 74.21875 49.921875 64.515625 
Q 56.59375 54.828125 56.59375 36.375 
Q 56.59375 19.140625 48.40625 8.859375 
Q 40.234375 -1.421875 26.421875 -1.421875 
Q 22.703125 -1.421875 18.890625 -0.6875 
Q 15.09375 0.046875 10.984375 1.515625 
M 30.609375 32.421875 
Q 37.25 32.421875 41.125 36.953125 
Q 45.015625 41.5 45.015625 49.421875 
Q 45.015625 57.28125 41.125 61.84375 
Q 37.25 66.40625 30.609375 66.40625 
Q 23.96875 66.40625 20.09375 61.84375 
Q 16.21875 57.28125 16.21875 49.421875 
Q 16.21875 41.5 20.09375 36.953125 
Q 23.96875 32.421875 30.609375 32.421875 
" id="DejaVuSans-39"/>
      </defs>
      <g style="fill:#555555;" transform="translate(254.579431 526.340278)rotate(-30)scale(0.12 -0.12)">
       <use xlink:href="#DejaVuSans-44"/>
       <use x="77.001953" xlink:href="#DejaVuSans-44"/>
       <use x="154.003906" xlink:href="#DejaVuSans-52"/>
       <use x="223.486328" xlink:href="#DejaVuSans-32"/>
       <use x="287.109375" xlink:href="#DejaVuSans-2d"/>
       <use x="323.193359" xlink:href="#DejaVuSans-39"/>
       <use x="386.816406" xlink:href="#DejaVuSans-30"/>
       <use x="450.439453" xlink:href="#DejaVuSans-30"/>
      </g>
     </g>
    </g>
    <g id="xtick_8">
     <g id="line2d_8">
      <g>
       <use style="fill:#555555;stroke:#555555;stroke-width:0.8;" x="344.448701" xlink:href="#m210730b39d" y="480.6"/>
      </g>
     </g>
     <g id="text_8">
      <!-- DDR3-1066 -->
      <defs>
       <path d="M 40.578125 39.3125 
Q 47.65625 37.796875 51.625 33 
Q 55.609375 28.21875 55.609375 21.1875 
Q 55.609375 10.40625 48.1875 4.484375 
Q 40.765625 -1.421875 27.09375 -1.421875 
Q 22.515625 -1.421875 17.65625 -0.515625 
Q 12.796875 0.390625 7.625 2.203125 
L 7.625 11.71875 
Q 11.71875 9.328125 16.59375 8.109375 
Q 21.484375 6.890625 26.8125 6.890625 
Q 36.078125 6.890625 40.9375 10.546875 
Q 45.796875 14.203125 45.796875 21.1875 
Q 45.796875 27.640625 41.28125 31.265625 
Q 36.765625 34.90625 28.71875 34.90625 
L 20.21875 34.90625 
L 20.21875 43.015625 
L 29.109375 43.015625 
Q 36.375 43.015625 40.234375 45.921875 
Q 44.09375 48.828125 44.09375 54.296875 
Q 44.09375 59.90625 40.109375 62.90625 
Q 36.140625 65.921875 28.71875 65.921875 
Q 24.65625 65.921875 20.015625 65.03125 
Q 15.375 64.15625 9.8125 62.3125 
L 9.8125 71.09375 
Q 15.4375 72.65625 20.34375 73.4375 
Q 25.25 74.21875 29.59375 74.21875 
Q 40.828125 74.21875 47.359375 69.109375 
Q 53.90625 64.015625 53.90625 55.328125 
Q 53.90625 49.265625 50.4375 45.09375 
Q 46.96875 40.921875 40.578125 39.3125 
" id="DejaVuSans-33"/>
       <path d="M 12.40625 8.296875 
L 28.515625 8.296875 
L 28.515625 63.921875 
L 10.984375 60.40625 
L 10.984375 69.390625 
L 28.421875 72.90625 
L 38.28125 72.90625 
L 38.28125 8.296875 
L 54.390625 8.296875 
L 54.390625 0 
L 12.40625 0 
z
" id="DejaVuSans-31"/>
      </defs>
      <g style="fill:#555555;" transform="translate(283.165843 530.157778)rotate(-30)scale(0.12 -0.12)">
       <use xlink:href="#DejaVuSans-44"/>
       <use x="77.001953" xlink:href="#DejaVuSans-44"/>
       <use x="154.003906" xlink:href="#DejaVuSans-52"/>
       <use x="223.486328" xlink:href="#DejaVuSans-33"/>
       <use x="287.109375" xlink:href="#DejaVuSans-2d"/>
       <use x="323.193359" xlink:href="#DejaVuSans-31"/>
       <use x="386.816406" xlink:href="#DejaVuSans-30"/>
       <use x="450.439453" xlink:href="#DejaVuSans-36"/>
       <use x="514.0625" xlink:href="#DejaVuSans-36"/>
      </g>
     </g>
    </g>
    <g id="xtick_9">
     <g id="line2d_9">
      <g>
       <use style="fill:#555555;stroke:#555555;stroke-width:0.8;" x="379.647217" xlink:href="#m210730b39d" y="480.6"/>
      </g>
     </g>
     <g id="text_9">
      <!-- DDR2-1150 -->
      <g style="fill:#555555;" transform="translate(318.364359 530.157778)rotate(-30)scale(0.12 -0.12)">
       <use xlink:href="#DejaVuSans-44"/>
       <use x="77.001953" xlink:href="#DejaVuSans-44"/>
       <use x="154.003906" xlink:href="#DejaVuSans-52"/>
       <use x="223.486328" xlink:href="#DejaVuSans-32"/>
       <use x="287.109375" xlink:href="#DejaVuSans-2d"/>
       <use x="323.193359" xlink:href="#DejaVuSans-31"/>
       <use x="386.816406" xlink:href="#DejaVuSans-31"/>
       <use x="450.439453" xlink:href="#DejaVuSans-35"/>
       <use x="514.0625" xlink:href="#DejaVuSans-30"/>
      </g>
     </g>
    </g>
    <g id="xtick_10">
     <g id="line2d_10">
      <g>
       <use style="fill:#555555;stroke:#555555;stroke-width:0.8;" x="414.845733" xlink:href="#m210730b39d" y="480.6"/>
      </g>
     </g>
     <g id="text_10">
      <!-- DDR3-1375 -->
      <g style="fill:#555555;" transform="translate(353.562874 530.157778)rotate(-30)scale(0.12 -0.12)">
       <use xlink:href="#DejaVuSans-44"/>
       <use x="77.001953" xlink:href="#DejaVuSans-44"/>
       <use x="154.003906" xlink:href="#DejaVuSans-52"/>
       <use x="223.486328" xlink:href="#DejaVuSans-33"/>
       <use x="287.109375" xlink:href="#DejaVuSans-2d"/>
       <use x="323.193359" xlink:href="#DejaVuSans-31"/>
       <use x="386.816406" xlink:href="#DejaVuSans-33"/>
       <use x="450.439453" xlink:href="#DejaVuSans-37"/>
       <use x="514.0625" xlink:href="#DejaVuSans-35"/>
      </g>
     </g>
    </g>
    <g id="xtick_11">
     <g id="line2d_11">
      <g>
       <use style="fill:#555555;stroke:#555555;stroke-width:0.8;" x="450.044249" xlink:href="#m210730b39d" y="480.6"/>
      </g>
     </g>
     <g id="text_11">
      <!-- DDR3-1866 -->
      <defs>
       <path d="M 31.78125 34.625 
Q 24.75 34.625 20.71875 30.859375 
Q 16.703125 27.09375 16.703125 20.515625 
Q 16.703125 13.921875 20.71875 10.15625 
Q 24.75 6.390625 31.78125 6.390625 
Q 38.8125 6.390625 42.859375 10.171875 
Q 46.921875 13.96875 46.921875 20.515625 
Q 46.921875 27.09375 42.890625 30.859375 
Q 38.875 34.625 31.78125 34.625 
M 21.921875 38.8125 
Q 15.578125 40.375 12.03125 44.71875 
Q 8.5 49.078125 8.5 55.328125 
Q 8.5 64.0625 14.71875 69.140625 
Q 20.953125 74.21875 31.78125 74.21875 
Q 42.671875 74.21875 48.875 69.140625 
Q 55.078125 64.0625 55.078125 55.328125 
Q 55.078125 49.078125 51.53125 44.71875 
Q 48 40.375 41.703125 38.8125 
Q 48.828125 37.15625 52.796875 32.3125 
Q 56.78125 27.484375 56.78125 20.515625 
Q 56.78125 9.90625 50.3125 4.234375 
Q 43.84375 -1.421875 31.78125 -1.421875 
Q 19.734375 -1.421875 13.25 4.234375 
Q 6.78125 9.90625 6.78125 20.515625 
Q 6.78125 27.484375 10.78125 32.3125 
Q 14.796875 37.15625 21.921875 38.8125 
M 18.3125 54.390625 
Q 18.3125 48.734375 21.84375 45.5625 
Q 25.390625 42.390625 31.78125 42.390625 
Q 38.140625 42.390625 41.71875 45.5625 
Q 45.3125 48.734375 45.3125 54.390625 
Q 45.3125 60.0625 41.71875 63.234375 
Q 38.140625 66.40625 31.78125 66.40625 
Q 25.390625 66.40625 21.84375 63.234375 
Q 18.3125 60.0625 18.3125 54.390625 
" id="DejaVuSans-38"/>
      </defs>
      <g style="fill:#555555;" transform="translate(388.76139 530.157778)rotate(-30)scale(0.12 -0.12)">
       <use xlink:href="#DejaVuSans-44"/>
       <use x="77.001953" xlink:href="#DejaVuSans-44"/>
       <use x="154.003906" xlink:href="#DejaVuSans-52"/>
       <use x="223.486328" xlink:href="#DejaVuSans-33"/>
       <use x="287.109375" xlink:href="#DejaVuSans-2d"/>
       <use x="323.193359" xlink:href="#DejaVuSans-31"/>
       <use x="386.816406" xlink:href="#DejaVuSans-38"/>
       <use x="450.439453" xlink:href="#DejaVuSans-36"/>
       <use x="514.0625" xlink:href="#DejaVuSans-36"/>
      </g>
     </g>
    </g>
    <g id="xtick_12">
     <g id="line2d_12">
      <g>
       <use style="fill:#555555;stroke:#555555;stroke-width:0.8;" x="485.242764" xlink:href="#m210730b39d" y="480.6"/>
      </g>
     </g>
     <g id="text_12">
      <!-- DDR4-2133 -->
      <g style="fill:#555555;" transform="translate(423.959906 530.157778)rotate(-30)scale(0.12 -0.12)">
       <use xlink:href="#DejaVuSans-44"/>
       <use x="77.001953" xlink:href="#DejaVuSans-44"/>
       <use x="154.003906" xlink:href="#DejaVuSans-52"/>
       <use x="223.486328" xlink:href="#DejaVuSans-34"/>
       <use x="287.109375" xlink:href="#DejaVuSans-2d"/>
       <use x="323.193359" xlink:href="#DejaVuSans-32"/>
       <use x="386.816406" xlink:href="#DejaVuSans-31"/>
       <use x="450.439453" xlink:href="#DejaVuSans-33"/>
       <use x="514.0625" xlink:href="#DejaVuSans-33"/>
      </g>
     </g>
    </g>
    <g id="xtick_13">
     <g id="line2d_13">
      <g>
       <use style="fill:#555555;stroke:#555555;stroke-width:0.8;" x="520.44128" xlink:href="#m210730b39d" y="480.6"/>
      </g>
     </g>
     <g id="text_13">
      <!-- DDR3-3000 -->
      <g style="fill:#555555;" transform="translate(459.158422 530.157778)rotate(-30)scale(0.12 -0.12)">
       <use xlink:href="#DejaVuSans-44"/>
       <use x="77.001953" xlink:href="#DejaVuSans-44"/>
       <use x="154.003906" xlink:href="#DejaVuSans-52"/>
       <use x="223.486328" xlink:href="#DejaVuSans-33"/>
       <use x="287.109375" xlink:href="#DejaVuSans-2d"/>
       <use x="323.193359" xlink:href="#DejaVuSans-33"/>
       <use x="386.816406" xlink:href="#DejaVuSans-30"/>
       <use x="450.439453" xlink:href="#DejaVuSans-30"/>
       <use x="514.0625" xlink:href="#DejaVuSans-30"/>
      </g>
     </g>
    </g>
   </g>
   <g id="matplotlib.axis_2">
    <g id="ytick_1">
     <g id="line2d_14">
      <path clip-path="url(#pb7a6ef6249)" d="M 76.5 442.731629 
L 550.8 442.731629 
" style="fill:none;stroke:#ffffff;stroke-linecap:square;stroke-width:0.8;"/>
     </g>
     <g id="line2d_15">
      <defs>
       <path d="M 0 0 
L -3.5 0 
" id="m541c4ffab9" style="stroke:#555555;stroke-width:0.8;"/>
      </defs>
      <g>
       <use style="fill:#555555;stroke:#555555;stroke-width:0.8;" x="76.5" xlink:href="#m541c4ffab9" y="442.731629"/>
      </g>
     </g>
     <g id="text_14">
      <!-- 100 MB/s -->
      <defs>
       <path d="M 9.8125 72.90625 
L 24.515625 72.90625 
L 43.109375 23.296875 
L 61.8125 72.90625 
L 76.515625 72.90625 
L 76.515625 0 
L 66.890625 0 
L 66.890625 64.015625 
L 48.09375 14.015625 
L 38.1875 14.015625 
L 19.390625 64.015625 
L 19.390625 0 
L 9.8125 0 
z
" id="DejaVuSans-4d"/>
       <path d="M 19.671875 34.8125 
L 19.671875 8.109375 
L 35.5 8.109375 
Q 43.453125 8.109375 47.28125 11.40625 
Q 51.125 14.703125 51.125 21.484375 
Q 51.125 28.328125 47.28125 31.5625 
Q 43.453125 34.8125 35.5 34.8125 
z
M 19.671875 64.796875 
L 19.671875 42.828125 
L 34.28125 42.828125 
Q 41.5 42.828125 45.03125 45.53125 
Q 48.578125 48.25 48.578125 53.8125 
Q 48.578125 59.328125 45.03125 62.0625 
Q 41.5 64.796875 34.28125 64.796875 
z
M 9.8125 72.90625 
L 35.015625 72.90625 
Q 46.296875 72.90625 52.390625 68.21875 
Q 58.5 63.53125 58.5 54.890625 
Q 58.5 48.1875 55.375 44.234375 
Q 52.25 40.28125 46.1875 39.3125 
Q 53.46875 37.75 57.5 32.78125 
Q 61.53125 27.828125 61.53125 20.40625 
Q 61.53125 10.640625 54.890625 5.3125 
Q 48.25 0 35.984375 0 
L 9.8125 0 
z
" id="DejaVuSans-42"/>
       <path d="M 25.390625 72.90625 
L 33.6875 72.90625 
L 8.296875 -9.28125 
L 0 -9.28125 
z
" id="DejaVuSans-2f"/>
      </defs>
      <g style="fill:#555555;" transform="translate(13.900625 447.290691)scale(0.12 -0.12)">
       <use xlink:href="#DejaVuSans-31"/>
       <use x="63.623047" xlink:href="#DejaVuSans-30"/>
       <use x="127.246094" xlink:href="#DejaVuSans-30"/>
       <use x="190.869141" xlink:href="#DejaVuSans-20"/>
       <use x="222.65625" xlink:href="#DejaVuSans-4d"/>
       <use x="308.935547" xlink:href="#DejaVuSans-42"/>
       <use x="377.539062" xlink:href="#DejaVuSans-2f"/>
       <use x="411.230469" xlink:href="#DejaVuSans-73"/>
      </g>
     </g>
    </g>
    <g id="ytick_2">
     <g id="line2d_16">
      <path clip-path="url(#pb7a6ef6249)" d="M 76.5 316.935623 
L 550.8 316.935623 
" style="fill:none;stroke:#ffffff;stroke-linecap:square;stroke-width:0.8;"/>
     </g>
     <g id="line2d_17">
      <g>
       <use style="fill:#555555;stroke:#555555;stroke-width:0.8;" x="76.5" xlink:href="#m541c4ffab9" y="316.935623"/>
      </g>
     </g>
     <g id="text_15">
      <!-- 1 GB/s -->
      <defs>
       <path d="M 59.515625 10.40625 
L 59.515625 29.984375 
L 43.40625 29.984375 
L 43.40625 38.09375 
L 69.28125 38.09375 
L 69.28125 6.78125 
Q 63.578125 2.734375 56.6875 0.65625 
Q 49.8125 -1.421875 42 -1.421875 
Q 24.90625 -1.421875 15.25 8.5625 
Q 5.609375 18.5625 5.609375 36.375 
Q 5.609375 54.25 15.25 64.234375 
Q 24.90625 74.21875 42 74.21875 
Q 49.125 74.21875 55.546875 72.453125 
Q 61.96875 70.703125 67.390625 67.28125 
L 67.390625 56.78125 
Q 61.921875 61.421875 55.765625 63.765625 
Q 49.609375 66.109375 42.828125 66.109375 
Q 29.4375 66.109375 22.71875 58.640625 
Q 16.015625 51.171875 16.015625 36.375 
Q 16.015625 21.625 22.71875 14.15625 
Q 29.4375 6.6875 42.828125 6.6875 
Q 48.046875 6.6875 52.140625 7.59375 
Q 56.25 8.5 59.515625 10.40625 
" id="DejaVuSans-47"/>
      </defs>
      <g style="fill:#555555;" transform="translate(30.22625 321.494686)scale(0.12 -0.12)">
       <use xlink:href="#DejaVuSans-31"/>
       <use x="63.623047" xlink:href="#DejaVuSans-20"/>
       <use x="95.410156" xlink:href="#DejaVuSans-47"/>
       <use x="172.900391" xlink:href="#DejaVuSans-42"/>
       <use x="241.503906" xlink:href="#DejaVuSans-2f"/>
       <use x="275.195312" xlink:href="#DejaVuSans-73"/>
      </g>
     </g>
    </g>
    <g id="ytick_3">
     <g id="line2d_18">
      <path clip-path="url(#pb7a6ef6249)" d="M 76.5 191.139617 
L 550.8 191.139617 
" style="fill:none;stroke:#ffffff;stroke-linecap:square;stroke-width:0.8;"/>
     </g>
     <g id="line2d_19">
      <g>
       <use style="fill:#555555;stroke:#555555;stroke-width:0.8;" x="76.5" xlink:href="#m541c4ffab9" y="191.139617"/>
      </g>
     </g>
     <g id="text_16">
      <!-- 10 GB/s -->
      <g style="fill:#555555;" transform="translate(22.59125 195.69868)scale(0.12 -0.12)">
       <use xlink:href="#DejaVuSans-31"/>
       <use x="63.623047" xlink:href="#DejaVuSans-30"/>
       <use x="127.246094" xlink:href="#DejaVuSans-20"/>
       <use x="159.033203" xlink:href="#DejaVuSans-47"/>
       <use x="236.523438" xlink:href="#DejaVuSans-42"/>
       <use x="305.126953" xlink:href="#DejaVuSans-2f"/>
       <use x="338.818359" xlink:href="#DejaVuSans-73"/>
      </g>
     </g>
    </g>
    <g id="ytick_4">
     <g id="line2d_20">
      <path clip-path="url(#pb7a6ef6249)" d="M 76.5 65.343612 
L 550.8 65.343612 
" style="fill:none;stroke:#ffffff;stroke-linecap:square;stroke-width:0.8;"/>
     </g>
     <g id="line2d_21">
      <g>
       <use style="fill:#555555;stroke:#555555;stroke-width:0.8;" x="76.5" xlink:href="#m541c4ffab9" y="65.343612"/>
      </g>
     </g>
     <g id="text_17">
      <!-- 100 GB/s -->
      <g style="fill:#555555;" transform="translate(14.95625 69.902674)scale(0.12 -0.12)">
       <use xlink:href="#DejaVuSans-31"/>
       <use x="63.623047" xlink:href="#DejaVuSans-30"/>
       <use x="127.246094" xlink:href="#DejaVuSans-30"/>
       <use x="190.869141" xlink:href="#DejaVuSans-20"/>
       <use x="222.65625" xlink:href="#DejaVuSans-47"/>
       <use x="300.146484" xlink:href="#DejaVuSans-42"/>
       <use x="368.75" xlink:href="#DejaVuSans-2f"/>
       <use x="402.441406" xlink:href="#DejaVuSans-73"/>
      </g>
     </g>
    </g>
    <g id="ytick_5">
     <g id="line2d_22">
      <path clip-path="url(#pb7a6ef6249)" d="M 76.5 480.6 
L 550.8 480.6 
" style="fill:none;stroke:#ffffff;stroke-linecap:square;stroke-width:0.8;"/>
     </g>
     <g id="line2d_23">
      <defs>
       <path d="M 0 0 
L -2 0 
" id="m8b187ab8db" style="stroke:#555555;stroke-width:0.6;"/>
      </defs>
      <g>
       <use style="fill:#555555;stroke:#555555;stroke-width:0.6;" x="76.5" xlink:href="#m8b187ab8db" y="480.6"/>
      </g>
     </g>
    </g>
    <g id="ytick_6">
     <g id="line2d_24">
      <path clip-path="url(#pb7a6ef6249)" d="M 76.5 470.639316 
L 550.8 470.639316 
" style="fill:none;stroke:#ffffff;stroke-linecap:square;stroke-width:0.8;"/>
     </g>
     <g id="line2d_25">
      <g>
       <use style="fill:#555555;stroke:#555555;stroke-width:0.6;" x="76.5" xlink:href="#m8b187ab8db" y="470.639316"/>
      </g>
     </g>
    </g>
    <g id="ytick_7">
     <g id="line2d_26">
      <path clip-path="url(#pb7a6ef6249)" d="M 76.5 462.217677 
L 550.8 462.217677 
" style="fill:none;stroke:#ffffff;stroke-linecap:square;stroke-width:0.8;"/>
     </g>
     <g id="line2d_27">
      <g>
       <use style="fill:#555555;stroke:#555555;stroke-width:0.6;" x="76.5" xlink:href="#m8b187ab8db" y="462.217677"/>
      </g>
     </g>
    </g>
    <g id="ytick_8">
     <g id="line2d_28">
      <path clip-path="url(#pb7a6ef6249)" d="M 76.5 454.922521 
L 550.8 454.922521 
" style="fill:none;stroke:#ffffff;stroke-linecap:square;stroke-width:0.8;"/>
     </g>
     <g id="line2d_29">
      <g>
       <use style="fill:#555555;stroke:#555555;stroke-width:0.6;" x="76.5" xlink:href="#m8b187ab8db" y="454.922521"/>
      </g>
     </g>
    </g>
    <g id="ytick_9">
     <g id="line2d_30">
      <path clip-path="url(#pb7a6ef6249)" d="M 76.5 448.487738 
L 550.8 448.487738 
" style="fill:none;stroke:#ffffff;stroke-linecap:square;stroke-width:0.8;"/>
     </g>
     <g id="line2d_31">
      <g>
       <use style="fill:#555555;stroke:#555555;stroke-width:0.6;" x="76.5" xlink:href="#m8b187ab8db" y="448.487738"/>
      </g>
     </g>
    </g>
    <g id="ytick_10">
     <g id="line2d_32">
      <path clip-path="url(#pb7a6ef6249)" d="M 76.5 404.863258 
L 550.8 404.863258 
" style="fill:none;stroke:#ffffff;stroke-linecap:square;stroke-width:0.8;"/>
     </g>
     <g id="line2d_33">
      <g>
       <use style="fill:#555555;stroke:#555555;stroke-width:0.6;" x="76.5" xlink:href="#m8b187ab8db" y="404.863258"/>
      </g>
     </g>
    </g>
    <g id="ytick_11">
     <g id="line2d_34">
      <path clip-path="url(#pb7a6ef6249)" d="M 76.5 382.711681 
L 550.8 382.711681 
" style="fill:none;stroke:#ffffff;stroke-linecap:square;stroke-width:0.8;"/>
     </g>
     <g id="line2d_35">
      <g>
       <use style="fill:#555555;stroke:#555555;stroke-width:0.6;" x="76.5" xlink:href="#m8b187ab8db" y="382.711681"/>
      </g>
     </g>
    </g>
    <g id="ytick_12">
     <g id="line2d_36">
      <path clip-path="url(#pb7a6ef6249)" d="M 76.5 366.994887 
L 550.8 366.994887 
" style="fill:none;stroke:#ffffff;stroke-linecap:square;stroke-width:0.8;"/>
     </g>
     <g id="line2d_37">
      <g>
       <use style="fill:#555555;stroke:#555555;stroke-width:0.6;" x="76.5" xlink:href="#m8b187ab8db" y="366.994887"/>
      </g>
     </g>
    </g>
    <g id="ytick_13">
     <g id="line2d_38">
      <path clip-path="url(#pb7a6ef6249)" d="M 76.5 354.803994 
L 550.8 354.803994 
" style="fill:none;stroke:#ffffff;stroke-linecap:square;stroke-width:0.8;"/>
     </g>
     <g id="line2d_39">
      <g>
       <use style="fill:#555555;stroke:#555555;stroke-width:0.6;" x="76.5" xlink:href="#m8b187ab8db" y="354.803994"/>
      </g>
     </g>
    </g>
    <g id="ytick_14">
     <g id="line2d_40">
      <path clip-path="url(#pb7a6ef6249)" d="M 76.5 344.84331 
L 550.8 344.84331 
" style="fill:none;stroke:#ffffff;stroke-linecap:square;stroke-width:0.8;"/>
     </g>
     <g id="line2d_41">
      <g>
       <use style="fill:#555555;stroke:#555555;stroke-width:0.6;" x="76.5" xlink:href="#m8b187ab8db" y="344.84331"/>
      </g>
     </g>
    </g>
    <g id="ytick_15">
     <g id="line2d_42">
      <path clip-path="url(#pb7a6ef6249)" d="M 76.5 336.421671 
L 550.8 336.421671 
" style="fill:none;stroke:#ffffff;stroke-linecap:square;stroke-width:0.8;"/>
     </g>
     <g id="line2d_43">
      <g>
       <use style="fill:#555555;stroke:#555555;stroke-width:0.6;" x="76.5" xlink:href="#m8b187ab8db" y="336.421671"/>
      </g>
     </g>
    </g>
    <g id="ytick_16">
     <g id="line2d_44">
      <path clip-path="url(#pb7a6ef6249)" d="M 76.5 329.126516 
L 550.8 329.126516 
" style="fill:none;stroke:#ffffff;stroke-linecap:square;stroke-width:0.8;"/>
     </g>
     <g id="line2d_45">
      <g>
       <use style="fill:#555555;stroke:#555555;stroke-width:0.6;" x="76.5" xlink:href="#m8b187ab8db" y="329.126516"/>
      </g>
     </g>
    </g>
    <g id="ytick_17">
     <g id="line2d_46">
      <path clip-path="url(#pb7a6ef6249)" d="M 76.5 322.691733 
L 550.8 322.691733 
" style="fill:none;stroke:#ffffff;stroke-linecap:square;stroke-width:0.8;"/>
     </g>
     <g id="line2d_47">
      <g>
       <use style="fill:#555555;stroke:#555555;stroke-width:0.6;" x="76.5" xlink:href="#m8b187ab8db" y="322.691733"/>
      </g>
     </g>
    </g>
    <g id="ytick_18">
     <g id="line2d_48">
      <path clip-path="url(#pb7a6ef6249)" d="M 76.5 279.067252 
L 550.8 279.067252 
" style="fill:none;stroke:#ffffff;stroke-linecap:square;stroke-width:0.8;"/>
     </g>
     <g id="line2d_49">
      <g>
       <use style="fill:#555555;stroke:#555555;stroke-width:0.6;" x="76.5" xlink:href="#m8b187ab8db" y="279.067252"/>
      </g>
     </g>
    </g>
    <g id="ytick_19">
     <g id="line2d_50">
      <path clip-path="url(#pb7a6ef6249)" d="M 76.5 256.915675 
L 550.8 256.915675 
" style="fill:none;stroke:#ffffff;stroke-linecap:square;stroke-width:0.8;"/>
     </g>
     <g id="line2d_51">
      <g>
       <use style="fill:#555555;stroke:#555555;stroke-width:0.6;" x="76.5" xlink:href="#m8b187ab8db" y="256.915675"/>
      </g>
     </g>
    </g>
    <g id="ytick_20">
     <g id="line2d_52">
      <path clip-path="url(#pb7a6ef6249)" d="M 76.5 241.198881 
L 550.8 241.198881 
" style="fill:none;stroke:#ffffff;stroke-linecap:square;stroke-width:0.8;"/>
     </g>
     <g id="line2d_53">
      <g>
       <use style="fill:#555555;stroke:#555555;stroke-width:0.6;" x="76.5" xlink:href="#m8b187ab8db" y="241.198881"/>
      </g>
     </g>
    </g>
    <g id="ytick_21">
     <g id="line2d_54">
      <path clip-path="url(#pb7a6ef6249)" d="M 76.5 229.007988 
L 550.8 229.007988 
" style="fill:none;stroke:#ffffff;stroke-linecap:square;stroke-width:0.8;"/>
     </g>
     <g id="line2d_55">
      <g>
       <use style="fill:#555555;stroke:#555555;stroke-width:0.6;" x="76.5" xlink:href="#m8b187ab8db" y="229.007988"/>
      </g>
     </g>
    </g>
    <g id="ytick_22">
     <g id="line2d_56">
      <path clip-path="url(#pb7a6ef6249)" d="M 76.5 219.047304 
L 550.8 219.047304 
" style="fill:none;stroke:#ffffff;stroke-linecap:square;stroke-width:0.8;"/>
     </g>
     <g id="line2d_57">
      <g>
       <use style="fill:#555555;stroke:#555555;stroke-width:0.6;" x="76.5" xlink:href="#m8b187ab8db" y="219.047304"/>
      </g>
     </g>
    </g>
    <g id="ytick_23">
     <g id="line2d_58">
      <path clip-path="url(#pb7a6ef6249)" d="M 76.5 210.625665 
L 550.8 210.625665 
" style="fill:none;stroke:#ffffff;stroke-linecap:square;stroke-width:0.8;"/>
     </g>
     <g id="line2d_59">
      <g>
       <use style="fill:#555555;stroke:#555555;stroke-width:0.6;" x="76.5" xlink:href="#m8b187ab8db" y="210.625665"/>
      </g>
     </g>
    </g>
    <g id="ytick_24">
     <g id="line2d_60">
      <path clip-path="url(#pb7a6ef6249)" d="M 76.5 203.33051 
L 550.8 203.33051 
" style="fill:none;stroke:#ffffff;stroke-linecap:square;stroke-width:0.8;"/>
     </g>
     <g id="line2d_61">
      <g>
       <use style="fill:#555555;stroke:#555555;stroke-width:0.6;" x="76.5" xlink:href="#m8b187ab8db" y="203.33051"/>
      </g>
     </g>
    </g>
    <g id="ytick_25">
     <g id="line2d_62">
      <path clip-path="url(#pb7a6ef6249)" d="M 76.5 196.895727 
L 550.8 196.895727 
" style="fill:none;stroke:#ffffff;stroke-linecap:square;stroke-width:0.8;"/>
     </g>
     <g id="line2d_63">
      <g>
       <use style="fill:#555555;stroke:#555555;stroke-width:0.6;" x="76.5" xlink:href="#m8b187ab8db" y="196.895727"/>
      </g>
     </g>
    </g>
    <g id="ytick_26">
     <g id="line2d_64">
      <path clip-path="url(#pb7a6ef6249)" d="M 76.5 153.271246 
L 550.8 153.271246 
" style="fill:none;stroke:#ffffff;stroke-linecap:square;stroke-width:0.8;"/>
     </g>
     <g id="line2d_65">
      <g>
       <use style="fill:#555555;stroke:#555555;stroke-width:0.6;" x="76.5" xlink:href="#m8b187ab8db" y="153.271246"/>
      </g>
     </g>
    </g>
    <g id="ytick_27">
     <g id="line2d_66">
      <path clip-path="url(#pb7a6ef6249)" d="M 76.5 131.119669 
L 550.8 131.119669 
" style="fill:none;stroke:#ffffff;stroke-linecap:square;stroke-width:0.8;"/>
     </g>
     <g id="line2d_67">
      <g>
       <use style="fill:#555555;stroke:#555555;stroke-width:0.6;" x="76.5" xlink:href="#m8b187ab8db" y="131.119669"/>
      </g>
     </g>
    </g>
    <g id="ytick_28">
     <g id="line2d_68">
      <path clip-path="url(#pb7a6ef6249)" d="M 76.5 115.402875 
L 550.8 115.402875 
" style="fill:none;stroke:#ffffff;stroke-linecap:square;stroke-width:0.8;"/>
     </g>
     <g id="line2d_69">
      <g>
       <use style="fill:#555555;stroke:#555555;stroke-width:0.6;" x="76.5" xlink:href="#m8b187ab8db" y="115.402875"/>
      </g>
     </g>
    </g>
    <g id="ytick_29">
     <g id="line2d_70">
      <path clip-path="url(#pb7a6ef6249)" d="M 76.5 103.211983 
L 550.8 103.211983 
" style="fill:none;stroke:#ffffff;stroke-linecap:square;stroke-width:0.8;"/>
     </g>
     <g id="line2d_71">
      <g>
       <use style="fill:#555555;stroke:#555555;stroke-width:0.6;" x="76.5" xlink:href="#m8b187ab8db" y="103.211983"/>
      </g>
     </g>
    </g>
    <g id="ytick_30">
     <g id="line2d_72">
      <path clip-path="url(#pb7a6ef6249)" d="M 76.5 93.251298 
L 550.8 93.251298 
" style="fill:none;stroke:#ffffff;stroke-linecap:square;stroke-width:0.8;"/>
     </g>
     <g id="line2d_73">
      <g>
       <use style="fill:#555555;stroke:#555555;stroke-width:0.6;" x="76.5" xlink:href="#m8b187ab8db" y="93.251298"/>
      </g>
     </g>
    </g>
    <g id="ytick_31">
     <g id="line2d_74">
      <path clip-path="url(#pb7a6ef6249)" d="M 76.5 84.829659 
L 550.8 84.829659 
" style="fill:none;stroke:#ffffff;stroke-linecap:square;stroke-width:0.8;"/>
     </g>
     <g id="line2d_75">
      <g>
       <use style="fill:#555555;stroke:#555555;stroke-width:0.6;" x="76.5" xlink:href="#m8b187ab8db" y="84.829659"/>
      </g>
     </g>
    </g>
    <g id="ytick_32">
     <g id="line2d_76">
      <path clip-path="url(#pb7a6ef6249)" d="M 76.5 77.534504 
L 550.8 77.534504 
" style="fill:none;stroke:#ffffff;stroke-linecap:square;stroke-width:0.8;"/>
     </g>
     <g id="line2d_77">
      <g>
       <use style="fill:#555555;stroke:#555555;stroke-width:0.6;" x="76.5" xlink:href="#m8b187ab8db" y="77.534504"/>
      </g>
     </g>
    </g>
    <g id="ytick_33">
     <g id="line2d_78">
      <path clip-path="url(#pb7a6ef6249)" d="M 76.5 71.099721 
L 550.8 71.099721 
" style="fill:none;stroke:#ffffff;stroke-linecap:square;stroke-width:0.8;"/>
     </g>
     <g id="line2d_79">
      <g>
       <use style="fill:#555555;stroke:#555555;stroke-width:0.6;" x="76.5" xlink:href="#m8b187ab8db" y="71.099721"/>
      </g>
     </g>
    </g>
   </g>
   <g id="line2d_80">
    <defs>
     <path d="M 0 3 
C 0.795609 3 1.55874 2.683901 2.12132 2.12132 
C 2.683901 1.55874 3 0.795609 3 0 
C 3 -0.795609 2.683901 -1.55874 2.12132 -2.12132 
C 1.55874 -2.683901 0.795609 -3 0 -3 
C -0.795609 -3 -1.55874 -2.683901 -2.12132 -2.12132 
C -2.683901 -1.55874 -3 -0.795609 -3 0 
C -3 0.795609 -2.683901 1.55874 -2.12132 2.12132 
C -1.55874 2.683901 -0.795609 3 0 3 
z
" id="mcffac175d9" style="stroke:#e24a33;"/>
    </defs>
    <g clip-path="url(#pb7a6ef6249)">
     <use style="fill:#e24a33;stroke:#e24a33;" x="98.059091" xlink:href="#mcffac175d9" y="412.78638"/>
     <use style="fill:#e24a33;stroke:#e24a33;" x="106.85872" xlink:href="#mcffac175d9" y="390.529639"/>
     <use style="fill:#e24a33;stroke:#e24a33;" x="115.658349" xlink:href="#mcffac175d9" y="352.556307"/>
     <use style="fill:#e24a33;stroke:#e24a33;" x="124.457978" xlink:href="#mcffac175d9" y="330.439694"/>
     <use style="fill:#e24a33;stroke:#e24a33;" x="133.257607" xlink:href="#mcffac175d9" y="313.443878"/>
     <use style="fill:#e24a33;stroke:#e24a33;" x="142.057236" xlink:href="#mcffac175d9" y="306.974939"/>
     <use style="fill:#e24a33;stroke:#e24a33;" x="150.856865" xlink:href="#mcffac175d9" y="298.5533"/>
     <use style="fill:#e24a33;stroke:#e24a33;" x="159.656494" xlink:href="#mcffac175d9" y="291.258145"/>
     <use style="fill:#e24a33;stroke:#e24a33;" x="168.456122" xlink:href="#mcffac175d9" y="291.258145"/>
     <use style="fill:#e24a33;stroke:#e24a33;" x="177.255751" xlink:href="#mcffac175d9" y="275.549888"/>
     <use style="fill:#e24a33;stroke:#e24a33;" x="186.05538" xlink:href="#mcffac175d9" y="275.549888"/>
     <use style="fill:#e24a33;stroke:#e24a33;" x="194.855009" xlink:href="#mcffac175d9" y="263.343629"/>
     <use style="fill:#e24a33;stroke:#e24a33;" x="203.654638" xlink:href="#mcffac175d9" y="253.389774"/>
     <use style="fill:#e24a33;stroke:#e24a33;" x="212.454267" xlink:href="#mcffac175d9" y="253.389774"/>
     <use style="fill:#e24a33;stroke:#e24a33;" x="221.253896" xlink:href="#mcffac175d9" y="249.027347"/>
     <use style="fill:#e24a33;stroke:#e24a33;" x="230.053525" xlink:href="#mcffac175d9" y="244.973013"/>
     <use style="fill:#e24a33;stroke:#e24a33;" x="238.853154" xlink:href="#mcffac175d9" y="241.198881"/>
     <use style="fill:#e24a33;stroke:#e24a33;" x="247.652783" xlink:href="#mcffac175d9" y="237.681517"/>
     <use style="fill:#e24a33;stroke:#e24a33;" x="256.452412" xlink:href="#mcffac175d9" y="237.681517"/>
     <use style="fill:#e24a33;stroke:#e24a33;" x="265.252041" xlink:href="#mcffac175d9" y="235.991847"/>
     <use style="fill:#e24a33;stroke:#e24a33;" x="274.05167" xlink:href="#mcffac175d9" y="231.238196"/>
     <use style="fill:#e24a33;stroke:#e24a33;" x="282.851299" xlink:href="#mcffac175d9" y="225.485502"/>
     <use style="fill:#e24a33;stroke:#e24a33;" x="291.650928" xlink:href="#mcffac175d9" y="219.047304"/>
     <use style="fill:#e24a33;stroke:#e24a33;" x="300.450557" xlink:href="#mcffac175d9" y="215.521402"/>
     <use style="fill:#e24a33;stroke:#e24a33;" x="309.250186" xlink:href="#mcffac175d9" y="215.521402"/>
     <use style="fill:#e24a33;stroke:#e24a33;" x="318.049814" xlink:href="#mcffac175d9" y="209.086619"/>
     <use style="fill:#e24a33;stroke:#e24a33;" x="326.849443" xlink:href="#mcffac175d9" y="203.33051"/>
     <use style="fill:#e24a33;stroke:#e24a33;" x="335.649072" xlink:href="#mcffac175d9" y="200.018435"/>
     <use style="fill:#e24a33;stroke:#e24a33;" x="344.448701" xlink:href="#mcffac175d9" y="200.018435"/>
     <use style="fill:#e24a33;stroke:#e24a33;" x="353.24833" xlink:href="#mcffac175d9" y="198.123475"/>
     <use style="fill:#e24a33;stroke:#e24a33;" x="362.047959" xlink:href="#mcffac175d9" y="197.579864"/>
     <use style="fill:#e24a33;stroke:#e24a33;" x="370.847588" xlink:href="#mcffac175d9" y="196.076344"/>
     <use style="fill:#e24a33;stroke:#e24a33;" x="379.647217" xlink:href="#mcffac175d9" y="195.694964"/>
     <use style="fill:#e24a33;stroke:#e24a33;" x="388.446846" xlink:href="#mcffac175d9" y="193.369825"/>
     <use style="fill:#e24a33;stroke:#e24a33;" x="397.246475" xlink:href="#mcffac175d9" y="191.139617"/>
     <use style="fill:#e24a33;stroke:#e24a33;" x="406.046104" xlink:href="#mcffac175d9" y="187.612009"/>
     <use style="fill:#e24a33;stroke:#e24a33;" x="414.845733" xlink:href="#mcffac175d9" y="185.932583"/>
     <use style="fill:#e24a33;stroke:#e24a33;" x="423.645362" xlink:href="#mcffac175d9" y="177.653031"/>
     <use style="fill:#e24a33;stroke:#e24a33;" x="432.444991" xlink:href="#mcffac175d9" y="176.805999"/>
     <use style="fill:#e24a33;stroke:#e24a33;" x="441.24462" xlink:href="#mcffac175d9" y="171.218248"/>
     <use style="fill:#e24a33;stroke:#e24a33;" x="450.044249" xlink:href="#mcffac175d9" y="169.232612"/>
     <use style="fill:#e24a33;stroke:#e24a33;" x="458.843878" xlink:href="#mcffac175d9" y="169.232612"/>
     <use style="fill:#e24a33;stroke:#e24a33;" x="467.643506" xlink:href="#mcffac175d9" y="165.462139"/>
     <use style="fill:#e24a33;stroke:#e24a33;" x="476.443135" xlink:href="#mcffac175d9" y="162.150064"/>
     <use style="fill:#e24a33;stroke:#e24a33;" x="485.242764" xlink:href="#mcffac175d9" y="161.938371"/>
     <use style="fill:#e24a33;stroke:#e24a33;" x="494.042393" xlink:href="#mcffac175d9" y="160.255104"/>
     <use style="fill:#e24a33;stroke:#e24a33;" x="502.842022" xlink:href="#mcffac175d9" y="155.501454"/>
     <use style="fill:#e24a33;stroke:#e24a33;" x="511.641651" xlink:href="#mcffac175d9" y="149.830775"/>
     <use style="fill:#e24a33;stroke:#e24a33;" x="520.44128" xlink:href="#mcffac175d9" y="143.310562"/>
     <use style="fill:#e24a33;stroke:#e24a33;" x="529.240909" xlink:href="#mcffac175d9" y="139.78466"/>
    </g>
   </g>
   <g id="line2d_81">
    <defs>
     <path d="M 0 3 
C 0.795609 3 1.55874 2.683901 2.12132 2.12132 
C 2.683901 1.55874 3 0.795609 3 0 
C 3 -0.795609 2.683901 -1.55874 2.12132 -2.12132 
C 1.55874 -2.683901 0.795609 -3 0 -3 
C -0.795609 -3 -1.55874 -2.683901 -2.12132 -2.12132 
C -2.683901 -1.55874 -3 -0.795609 -3 0 
C -3 0.795609 -2.683901 1.55874 -2.12132 2.12132 
C -1.55874 2.683901 -0.795609 3 0 3 
z
" id="m37aef84b72" style="stroke:#00008b;"/>
    </defs>
    <g clip-path="url(#pb7a6ef6249)">
     <use style="fill:#00008b;stroke:#00008b;" x="520.44128" xlink:href="#m37aef84b72" y="139.78466"/>
    </g>
   </g>
   <g id="patch_3">
    <path d="M 76.5 480.6 
L 76.5 64.8 
" style="fill:none;stroke:#ffffff;stroke-linecap:square;stroke-linejoin:miter;"/>
   </g>
   <g id="patch_4">
    <path d="M 550.8 480.6 
L 550.8 64.8 
" style="fill:none;stroke:#ffffff;stroke-linecap:square;stroke-linejoin:miter;"/>
   </g>
   <g id="patch_5">
    <path d="M 76.5 480.6 
L 550.8 480.6 
" style="fill:none;stroke:#ffffff;stroke-linecap:square;stroke-linejoin:miter;"/>
   </g>
   <g id="patch_6">
    <path d="M 76.5 64.8 
L 550.8 64.8 
" style="fill:none;stroke:#ffffff;stroke-linecap:square;stroke-linejoin:miter;"/>
   </g>
   <g id="text_18">
    <!-- RAM Transfer rate -->
    <defs>
     <path d="M 34.1875 63.1875 
L 20.796875 26.90625 
L 47.609375 26.90625 
z
M 28.609375 72.90625 
L 39.796875 72.90625 
L 67.578125 0 
L 57.328125 0 
L 50.6875 18.703125 
L 17.828125 18.703125 
L 11.1875 0 
L 0.78125 0 
z
" id="DejaVuSans-41"/>
     <path d="M -0.296875 72.90625 
L 61.375 72.90625 
L 61.375 64.59375 
L 35.5 64.59375 
L 35.5 0 
L 25.59375 0 
L 25.59375 64.59375 
L -0.296875 64.59375 
z
" id="DejaVuSans-54"/>
     <path d="M 41.109375 46.296875 
Q 39.59375 47.171875 37.8125 47.578125 
Q 36.03125 48 33.890625 48 
Q 26.265625 48 22.1875 43.046875 
Q 18.109375 38.09375 18.109375 28.8125 
L 18.109375 0 
L 9.078125 0 
L 9.078125 54.6875 
L 18.109375 54.6875 
L 18.109375 46.1875 
Q 20.953125 51.171875 25.484375 53.578125 
Q 30.03125 56 36.53125 56 
Q 37.453125 56 38.578125 55.875 
Q 39.703125 55.765625 41.0625 55.515625 
z
" id="DejaVuSans-72"/>
     <path d="M 34.28125 27.484375 
Q 23.390625 27.484375 19.1875 25 
Q 14.984375 22.515625 14.984375 16.5 
Q 14.984375 11.71875 18.140625 8.90625 
Q 21.296875 6.109375 26.703125 6.109375 
Q 34.1875 6.109375 38.703125 11.40625 
Q 43.21875 16.703125 43.21875 25.484375 
L 43.21875 27.484375 
z
M 52.203125 31.203125 
L 52.203125 0 
L 43.21875 0 
L 43.21875 8.296875 
Q 40.140625 3.328125 35.546875 0.953125 
Q 30.953125 -1.421875 24.3125 -1.421875 
Q 15.921875 -1.421875 10.953125 3.296875 
Q 6 8.015625 6 15.921875 
Q 6 25.140625 12.171875 29.828125 
Q 18.359375 34.515625 30.609375 34.515625 
L 43.21875 34.515625 
L 43.21875 35.40625 
Q 43.21875 41.609375 39.140625 45 
Q 35.0625 48.390625 27.6875 48.390625 
Q 23 48.390625 18.546875 47.265625 
Q 14.109375 46.140625 10.015625 43.890625 
L 10.015625 52.203125 
Q 14.9375 54.109375 19.578125 55.046875 
Q 24.21875 56 28.609375 56 
Q 40.484375 56 46.34375 49.84375 
Q 52.203125 43.703125 52.203125 31.203125 
" id="DejaVuSans-61"/>
     <path d="M 37.109375 75.984375 
L 37.109375 68.5 
L 28.515625 68.5 
Q 23.6875 68.5 21.796875 66.546875 
Q 19.921875 64.59375 19.921875 59.515625 
L 19.921875 54.6875 
L 34.71875 54.6875 
L 34.71875 47.703125 
L 19.921875 47.703125 
L 19.921875 0 
L 10.890625 0 
L 10.890625 47.703125 
L 2.296875 47.703125 
L 2.296875 54.6875 
L 10.890625 54.6875 
L 10.890625 58.5 
Q 10.890625 67.625 15.140625 71.796875 
Q 19.390625 75.984375 28.609375 75.984375 
z
" id="DejaVuSans-66"/>
     <path d="M 56.203125 29.59375 
L 56.203125 25.203125 
L 14.890625 25.203125 
Q 15.484375 15.921875 20.484375 11.0625 
Q 25.484375 6.203125 34.421875 6.203125 
Q 39.59375 6.203125 44.453125 7.46875 
Q 49.3125 8.734375 54.109375 11.28125 
L 54.109375 2.78125 
Q 49.265625 0.734375 44.1875 -0.34375 
Q 39.109375 -1.421875 33.890625 -1.421875 
Q 20.796875 -1.421875 13.15625 6.1875 
Q 5.515625 13.8125 5.515625 26.8125 
Q 5.515625 40.234375 12.765625 48.109375 
Q 20.015625 56 32.328125 56 
Q 43.359375 56 49.78125 48.890625 
Q 56.203125 41.796875 56.203125 29.59375 
M 47.21875 32.234375 
Q 47.125 39.59375 43.09375 43.984375 
Q 39.0625 48.390625 32.421875 48.390625 
Q 24.90625 48.390625 20.390625 44.140625 
Q 15.875 39.890625 15.1875 32.171875 
z
" id="DejaVuSans-65"/>
     <path d="M 18.3125 70.21875 
L 18.3125 54.6875 
L 36.8125 54.6875 
L 36.8125 47.703125 
L 18.3125 47.703125 
L 18.3125 18.015625 
Q 18.3125 11.328125 20.140625 9.421875 
Q 21.96875 7.515625 27.59375 7.515625 
L 36.8125 7.515625 
L 36.8125 0 
L 27.59375 0 
Q 17.1875 0 13.234375 3.875 
Q 9.28125 7.765625 9.28125 18.015625 
L 9.28125 47.703125 
L 2.6875 47.703125 
L 2.6875 54.6875 
L 9.28125 54.6875 
L 9.28125 70.21875 
z
" id="DejaVuSans-74"/>
    </defs>
    <g transform="translate(235.25415 58.8)scale(0.1728 -0.1728)">
     <use xlink:href="#DejaVuSans-52"/>
     <use x="69.419922" xlink:href="#DejaVuSans-41"/>
     <use x="137.828125" xlink:href="#DejaVuSans-4d"/>
     <use x="224.107422" xlink:href="#DejaVuSans-20"/>
     <use x="255.894531" xlink:href="#DejaVuSans-54"/>
     <use x="316.759766" xlink:href="#DejaVuSans-72"/>
     <use x="357.873047" xlink:href="#DejaVuSans-61"/>
     <use x="419.152344" xlink:href="#DejaVuSans-6e"/>
     <use x="482.53125" xlink:href="#DejaVuSans-73"/>
     <use x="534.630859" xlink:href="#DejaVuSans-66"/>
     <use x="569.835938" xlink:href="#DejaVuSans-65"/>
     <use x="631.359375" xlink:href="#DejaVuSans-72"/>
     <use x="672.472656" xlink:href="#DejaVuSans-20"/>
     <use x="704.259766" xlink:href="#DejaVuSans-72"/>
     <use x="745.373047" xlink:href="#DejaVuSans-61"/>
     <use x="806.652344" xlink:href="#DejaVuSans-74"/>
     <use x="845.861328" xlink:href="#DejaVuSans-65"/>
    </g>
   </g>
  </g>
 </g>
 <defs>
  <clipPath id="pb7a6ef6249">
   <rect height="415.8" width="474.3" x="76.5" y="64.8"/>
  </clipPath>
 </defs>
</svg>
